<svg width="30" height="31" viewBox="0 0 30 31" fill="none" xmlns="http://www.w3.org/2000/svg">
<path d="M18.75 10.3334H26.925C26.4886 9.13843 25.8106 8.05343 24.9363 7.15074L20.5813 2.64799C19.7066 1.74554 18.6563 1.04543 17.5 0.594238V9.04174C17.5 9.75504 18.0596 10.3334 18.75 10.3334Z" fill="#374957"/>
<path d="M27.47 12.9166H18.75C16.6789 12.9166 15 11.1817 15 9.04165V0.031C14.7987 0.0167715 14.5975 0 14.3937 0H8.74996C5.2999 0.00429883 2.5041 2.89329 2.5 6.45835V24.5417C2.5041 28.1067 5.2999 30.9958 8.74996 31H21.2499C24.7 30.9958 27.4958 28.1067 27.5 24.5416V13.5431C27.5 13.3326 27.4837 13.1246 27.47 12.9166Z" fill="#374957"/>
</svg>
