<svg width="259" height="259" viewBox="0 0 259 259" fill="none" xmlns="http://www.w3.org/2000/svg">
<g clip-path="url(#clip0_80_5874)">
<path d="M259 248.209C259 251.071 257.863 253.816 255.839 255.839C253.815 257.863 251.07 259 248.208 259H10.7917C7.92954 259 5.18464 257.863 3.16081 255.839C1.13698 253.816 0 251.071 0 248.209C0 245.346 1.13698 242.602 3.16081 240.578C5.18464 238.554 7.92954 237.417 10.7917 237.417H248.208C251.07 237.417 253.815 238.554 255.839 240.578C257.863 242.602 259 245.346 259 248.209ZM40.4688 161.875C51.9943 161.875 59.3542 154.785 59.3542 151.084C59.3542 148.221 60.4911 145.477 62.515 143.453C64.5388 141.429 67.2837 140.292 70.1458 140.292C73.008 140.292 75.7529 141.429 77.7767 143.453C79.8005 145.477 80.9375 148.221 80.9375 151.084C80.9375 154.386 88.0708 161.875 99.8229 161.875C111.348 161.875 118.708 154.785 118.708 151.084C118.708 148.221 119.845 145.477 121.869 143.453C123.893 141.429 126.638 140.292 129.5 140.292C132.362 140.292 135.107 141.429 137.131 143.453C139.155 145.477 140.292 148.221 140.292 151.084C140.292 154.386 147.425 161.875 159.177 161.875C170.703 161.875 178.062 154.785 178.062 151.084C178.062 148.221 179.199 145.477 181.223 143.453C183.247 141.429 185.992 140.292 188.854 140.292C191.716 140.292 194.461 141.429 196.485 143.453C198.509 145.477 199.646 148.221 199.646 151.084C199.646 154.386 206.779 161.875 218.531 161.875C230.283 161.875 237.417 154.386 237.417 151.084C237.4 136.778 231.709 123.064 221.594 112.948C211.478 102.833 197.764 97.1424 183.458 97.1253H140.292V73.5563C146.582 71.3323 152.032 67.2191 155.895 61.7793C159.759 56.3396 161.847 49.839 161.875 43.1669C159.558 29.4183 153.306 16.6361 143.874 6.36736C142.008 4.4449 139.774 2.91661 137.306 1.87298C134.838 0.82936 132.185 0.291626 129.505 0.291626C126.826 0.291626 124.173 0.82936 121.705 1.87298C119.237 2.91661 117.003 4.4449 115.136 6.36736C105.698 16.6323 99.4409 29.4158 97.125 43.1669C97.1527 49.839 99.2411 56.3396 103.105 61.7793C106.968 67.2191 112.418 71.3323 118.708 73.5563V97.1253H75.5417C61.2363 97.1424 47.5217 102.833 37.4063 112.948C27.2909 123.064 21.6005 136.778 21.5833 151.084C21.5833 154.386 28.7166 161.875 40.4688 161.875ZM32.375 215.834H226.625C229.487 215.834 232.232 214.697 234.256 212.673C236.28 210.649 237.417 207.904 237.417 205.042V179.412C231.469 182.052 225.039 183.43 218.531 183.459C207.664 183.541 197.13 179.71 188.854 172.667C180.53 179.606 170.043 183.42 159.206 183.449C148.369 183.479 137.862 179.722 129.5 172.829C121.138 179.722 110.631 183.479 99.7937 183.449C88.9566 183.42 78.4701 179.606 70.1458 172.667C61.8699 179.71 51.3359 183.541 40.4688 183.459C33.9615 183.43 27.5308 182.052 21.5833 179.412V205.042C21.5833 207.904 22.7203 210.649 24.7441 212.673C26.768 214.697 29.5129 215.834 32.375 215.834Z" fill="#105B70"/>
</g>
<defs>
<clipPath id="clip0_80_5874">
<rect width="259" height="259" fill="white"/>
</clipPath>
</defs>
</svg>
