<svg width="24" height="24" viewBox="0 0 24 24" fill="none" xmlns="http://www.w3.org/2000/svg">
<g clip-path="url(#clip0_111_2598)">
<path d="M14.09 16H15C21.643 16 24 12.5 24 9.50004C23.999 8.68703 23.715 7.89972 23.1968 7.27328C22.6786 6.64684 21.9584 6.22035 21.16 6.06704C21.32 5.74388 21.4567 5.4097 21.569 5.06704C21.7436 4.48198 21.7779 3.86403 21.6691 3.26326C21.5603 2.66248 21.3116 2.09577 20.943 1.60904C20.5711 1.10748 20.0864 0.700479 19.528 0.42096C18.9697 0.141441 18.3534 -0.00275259 17.729 3.97966e-05H6.271C5.64635 -0.00240594 5.02989 0.14225 4.47153 0.4223C3.91317 0.702349 3.42859 1.10992 3.057 1.61204C2.68841 2.09877 2.43966 2.66548 2.3309 3.26626C2.22214 3.86703 2.25643 4.48498 2.431 5.07004C2.54332 5.4127 2.68 5.74688 2.84 6.07004C2.04208 6.22325 1.32232 6.6493 0.804145 7.27512C0.285973 7.90094 0.00167365 8.68754 0 9.50004C0 12.5 2.357 16 9 16H9.91C9.96825 16.3036 9.99838 16.6119 10 16.921V20C10.0172 20.2671 9.97723 20.5348 9.88279 20.7853C9.78836 21.0357 9.64162 21.2631 9.45237 21.4524C9.26311 21.6417 9.03568 21.7884 8.78524 21.8828C8.53479 21.9773 8.2671 22.0172 8 22H6C5.73478 22 5.48043 22.1054 5.29289 22.2929C5.10536 22.4805 5 22.7348 5 23C5 23.2653 5.10536 23.5196 5.29289 23.7071C5.48043 23.8947 5.73478 24 6 24H18C18.2652 24 18.5196 23.8947 18.7071 23.7071C18.8946 23.5196 19 23.2653 19 23C19 22.7348 18.8946 22.4805 18.7071 22.2929C18.5196 22.1054 18.2652 22 18 22H16.006C15.7385 22.0178 15.4703 21.9783 15.2193 21.8841C14.9682 21.79 14.7402 21.6434 14.5503 21.4541C14.3605 21.2648 14.2132 21.0372 14.1183 20.7864C14.0234 20.5357 13.9831 20.2676 14 20V16.92C14.0017 16.6113 14.0318 16.3033 14.09 16ZM15.726 13.149C17.4395 11.6311 18.9218 9.87083 20.126 7.92404C20.2446 7.97315 20.3716 7.99895 20.5 8.00004C20.8978 8.00004 21.2794 8.15808 21.5607 8.43938C21.842 8.72068 22 9.10222 22 9.50004C22 11.676 20.161 14 15 14H14.944C15.1695 13.6859 15.432 13.4002 15.726 13.149ZM9 14C3.839 14 2 11.676 2 9.50004C2 9.10222 2.15804 8.72068 2.43934 8.43938C2.72064 8.15808 3.10218 8.00004 3.5 8.00004C3.62873 7.99908 3.75606 7.97327 3.875 7.92404C5.0792 9.87083 6.56154 11.6311 8.275 13.149C8.5686 13.4003 8.83083 13.686 9.056 14H9Z" fill="#374957"/>
</g>
<defs>
<clipPath id="clip0_111_2598">
<rect width="24" height="24" fill="white"/>
</clipPath>
</defs>
</svg>
