<svg width="524" height="173" viewBox="0 0 524 173" fill="none" xmlns="http://www.w3.org/2000/svg">
<path d="M72.7094 19.304C76.2614 19.304 79.3654 20.008 82.0214 21.416C84.6774 22.824 86.7254 24.808 88.1654 27.368C89.6374 29.896 90.3734 32.824 90.3734 36.152C90.3734 39.448 89.6374 42.376 88.1654 44.936C86.7254 47.496 84.6614 49.48 81.9734 50.888C79.3174 52.296 76.2294 53 72.7094 53H60.0854V19.304H72.7094ZM72.1814 45.896C75.2854 45.896 77.7014 45.048 79.4294 43.352C81.1574 41.656 82.0214 39.256 82.0214 36.152C82.0214 33.048 81.1574 30.632 79.4294 28.904C77.7014 27.176 75.2854 26.312 72.1814 26.312H68.2934V45.896H72.1814ZM110.896 53.336C107.728 53.336 104.816 52.6 102.16 51.128C99.5364 49.656 97.4404 47.608 95.8724 44.984C94.3364 42.328 93.5684 39.352 93.5684 36.056C93.5684 32.76 94.3364 29.8 95.8724 27.176C97.4404 24.552 99.5364 22.504 102.16 21.032C104.816 19.56 107.728 18.824 110.896 18.824C114.064 18.824 116.96 19.56 119.584 21.032C122.24 22.504 124.32 24.552 125.824 27.176C127.36 29.8 128.128 32.76 128.128 36.056C128.128 39.352 127.36 42.328 125.824 44.984C124.288 47.608 122.208 49.656 119.584 51.128C116.96 52.6 114.064 53.336 110.896 53.336ZM110.896 45.848C113.584 45.848 115.728 44.952 117.328 43.16C118.96 41.368 119.776 39 119.776 36.056C119.776 33.08 118.96 30.712 117.328 28.952C115.728 27.16 113.584 26.264 110.896 26.264C108.176 26.264 106 27.144 104.368 28.904C102.768 30.664 101.968 33.048 101.968 36.056C101.968 39.032 102.768 41.416 104.368 43.208C106 44.968 108.176 45.848 110.896 45.848ZM162.839 53H154.631L140.903 32.216V53H132.695V19.304H140.903L154.631 40.184V19.304H162.839V53ZM193.029 19.304V25.88H184.101V53H175.893V25.88H166.965V19.304H193.029ZM245.48 19.304V53H237.272V32.792L229.736 53H223.112L215.528 32.744V53H207.32V19.304H217.016L226.472 42.632L235.832 19.304H245.48ZM259.59 19.304V53H251.382V19.304H259.59ZM277.731 53.336C275.267 53.336 273.059 52.936 271.107 52.136C269.155 51.336 267.587 50.152 266.403 48.584C265.251 47.016 264.643 45.128 264.579 42.92H273.315C273.443 44.168 273.875 45.128 274.611 45.8C275.347 46.44 276.307 46.76 277.491 46.76C278.707 46.76 279.667 46.488 280.371 45.944C281.075 45.368 281.427 44.584 281.427 43.592C281.427 42.76 281.139 42.072 280.563 41.528C280.019 40.984 279.331 40.536 278.499 40.184C277.699 39.832 276.547 39.432 275.043 38.984C272.867 38.312 271.091 37.64 269.715 36.968C268.339 36.296 267.155 35.304 266.163 33.992C265.171 32.68 264.675 30.968 264.675 28.856C264.675 25.72 265.811 23.272 268.083 21.512C270.355 19.72 273.315 18.824 276.963 18.824C280.675 18.824 283.667 19.72 285.939 21.512C288.211 23.272 289.427 25.736 289.587 28.904H280.707C280.643 27.816 280.243 26.968 279.507 26.36C278.771 25.72 277.827 25.4 276.674 25.4C275.683 25.4 274.883 25.672 274.275 26.216C273.667 26.728 273.363 27.48 273.363 28.472C273.363 29.56 273.875 30.408 274.898 31.016C275.923 31.624 277.523 32.28 279.699 32.984C281.875 33.72 283.635 34.424 284.979 35.096C286.355 35.768 287.539 36.744 288.531 38.024C289.523 39.304 290.019 40.952 290.019 42.968C290.019 44.888 289.523 46.632 288.531 48.2C287.571 49.768 286.163 51.016 284.307 51.944C282.451 52.872 280.259 53.336 277.731 53.336ZM307.262 53.336C304.798 53.336 302.59 52.936 300.638 52.136C298.686 51.336 297.118 50.152 295.934 48.584C294.782 47.016 294.174 45.128 294.11 42.92H302.846C302.974 44.168 303.406 45.128 304.142 45.8C304.878 46.44 305.838 46.76 307.022 46.76C308.238 46.76 309.198 46.488 309.902 45.944C310.606 45.368 310.958 44.584 310.958 43.592C310.958 42.76 310.67 42.072 310.094 41.528C309.55 40.984 308.862 40.536 308.03 40.184C307.23 39.832 306.078 39.432 304.574 38.984C302.398 38.312 300.622 37.64 299.246 36.968C297.87 36.296 296.686 35.304 295.694 33.992C294.702 32.68 294.206 30.968 294.206 28.856C294.206 25.72 295.342 23.272 297.614 21.512C299.886 19.72 302.846 18.824 306.494 18.824C310.206 18.824 313.198 19.72 315.47 21.512C317.742 23.272 318.958 25.736 319.118 28.904H310.238C310.174 27.816 309.774 26.968 309.038 26.36C308.302 25.72 307.358 25.4 306.206 25.4C305.214 25.4 304.414 25.672 303.806 26.216C303.198 26.728 302.894 27.48 302.894 28.472C302.894 29.56 303.406 30.408 304.43 31.016C305.454 31.624 307.054 32.28 309.23 32.984C311.406 33.72 313.166 34.424 314.51 35.096C315.886 35.768 317.07 36.744 318.062 38.024C319.054 39.304 319.55 40.952 319.55 42.968C319.55 44.888 319.054 46.632 318.062 48.2C317.102 49.768 315.694 51.016 313.838 51.944C311.982 52.872 309.79 53.336 307.262 53.336ZM363.669 19.304L352.005 41.864V53H343.797V41.864L332.133 19.304H341.445L347.973 33.416L354.453 19.304H363.669ZM382.912 53.336C379.744 53.336 376.832 52.6 374.176 51.128C371.552 49.656 369.456 47.608 367.888 44.984C366.352 42.328 365.584 39.352 365.584 36.056C365.584 32.76 366.352 29.8 367.888 27.176C369.456 24.552 371.552 22.504 374.176 21.032C376.832 19.56 379.744 18.824 382.912 18.824C386.08 18.824 388.976 19.56 391.6 21.032C394.256 22.504 396.336 24.552 397.84 27.176C399.376 29.8 400.144 32.76 400.144 36.056C400.144 39.352 399.376 42.328 397.84 44.984C396.304 47.608 394.224 49.656 391.6 51.128C388.976 52.6 386.08 53.336 382.912 53.336ZM382.912 45.848C385.6 45.848 387.744 44.952 389.344 43.16C390.976 41.368 391.792 39 391.792 36.056C391.792 33.08 390.976 30.712 389.344 28.952C387.744 27.16 385.6 26.264 382.912 26.264C380.192 26.264 378.016 27.144 376.384 28.904C374.784 30.664 373.984 33.048 373.984 36.056C373.984 39.032 374.784 41.416 376.384 43.208C378.016 44.968 380.192 45.848 382.912 45.848ZM412.774 19.304V39.464C412.774 41.48 413.27 43.032 414.262 44.12C415.254 45.208 416.71 45.752 418.63 45.752C420.55 45.752 422.022 45.208 423.046 44.12C424.07 43.032 424.582 41.48 424.582 39.464V19.304H432.79V39.416C432.79 42.424 432.15 44.968 430.87 47.048C429.59 49.128 427.862 50.696 425.686 51.752C423.542 52.808 421.142 53.336 418.486 53.336C415.83 53.336 413.446 52.824 411.334 51.8C409.254 50.744 407.606 49.176 406.39 47.096C405.174 44.984 404.566 42.424 404.566 39.416V19.304H412.774ZM455.738 53L448.73 40.28H446.762V53H438.554V19.304H452.33C454.986 19.304 457.242 19.768 459.098 20.696C460.986 21.624 462.394 22.904 463.322 24.536C464.25 26.136 464.714 27.928 464.714 29.912C464.714 32.152 464.074 34.152 462.794 35.912C461.546 37.672 459.69 38.92 457.226 39.656L465.002 53H455.738ZM446.762 34.472H451.85C453.354 34.472 454.474 34.104 455.21 33.368C455.978 32.632 456.362 31.592 456.362 30.248C456.362 28.968 455.978 27.96 455.21 27.224C454.474 26.488 453.354 26.12 451.85 26.12H446.762V34.472ZM227.879 91.304V125H219.671V111.128H206.903V125H198.695V91.304H206.903V104.504H219.671V91.304H227.879ZM299.339 125H291.131L277.403 104.216V125H269.195V91.304H277.403L291.131 112.184V91.304H299.339V125Z" fill="#073946"/>
<path d="M160.74 108.104C160.74 104.776 161.46 101.816 162.9 99.224C164.34 96.6 166.34 94.568 168.9 93.128C171.492 91.656 174.42 90.92 177.684 90.92C181.684 90.92 185.108 91.976 187.956 94.088C190.804 96.2 192.708 99.08 193.668 102.728H184.644C183.972 101.32 183.012 100.248 181.764 99.512C180.548 98.776 179.156 98.408 177.588 98.408C175.06 98.408 173.012 99.288 171.444 101.048C169.876 102.808 169.092 105.16 169.092 108.104C169.092 111.048 169.876 113.4 171.444 115.16C173.012 116.92 175.06 117.8 177.588 117.8C179.156 117.8 180.548 117.432 181.764 116.696C183.012 115.96 183.972 114.888 184.644 113.48H193.668C192.708 117.128 190.804 120.008 187.956 122.12C185.108 124.2 181.684 125.24 177.684 125.24C174.42 125.24 171.492 124.52 168.9 123.08C166.34 121.608 164.34 119.576 162.9 116.984C161.46 114.392 160.74 111.432 160.74 108.104Z" fill="#89AFB9"/>
<path d="M254.78 119.048H242.204L240.188 125H231.596L243.788 91.304H253.292L265.484 125H256.796L254.78 119.048ZM252.668 112.712L248.492 100.376L244.364 112.712H252.668Z" fill="#85DEDE"/>
<path d="M303.896 108.104C303.896 104.776 304.617 101.816 306.057 99.224C307.497 96.6 309.497 94.568 312.057 93.128C314.649 91.656 317.577 90.92 320.841 90.92C324.841 90.92 328.265 91.976 331.113 94.088C333.961 96.2 335.865 99.08 336.825 102.728H327.801C327.129 101.32 326.169 100.248 324.921 99.512C323.705 98.776 322.313 98.408 320.745 98.408C318.217 98.408 316.169 99.288 314.601 101.048C313.033 102.808 312.249 105.16 312.249 108.104C312.249 111.048 313.033 113.4 314.601 115.16C316.169 116.92 318.217 117.8 320.745 117.8C322.313 117.8 323.705 117.432 324.921 116.696C326.169 115.96 327.129 114.888 327.801 113.48H336.825C335.865 117.128 333.961 120.008 331.113 122.12C328.265 124.2 324.841 125.24 320.841 125.24C317.577 125.24 314.649 124.52 312.057 123.08C309.497 121.608 307.497 119.576 306.057 116.984C304.617 114.392 303.896 111.432 303.896 108.104Z" fill="#67AFC3"/>
<path d="M350.059 97.88V104.696H361.051V111.032H350.059V118.424H362.491V125H341.851V91.304H362.491V97.88H350.059Z" fill="#1BAAD1"/>
<path d="M509.842 99.2371L466.933 142.26L448.799 126.055L486.744 78.597L509.842 99.2371ZM433.217 161.741C429.526 158.443 427.449 154.813 426.985 150.851C426.52 146.888 427.624 143.411 430.297 140.421C433.026 137.367 436.385 135.848 440.375 135.866C444.422 135.82 448.29 137.446 451.981 140.743C455.608 143.984 457.625 147.618 458.032 151.644C458.497 155.607 457.364 159.115 454.635 162.17C451.963 165.16 448.632 166.647 444.642 166.629C440.652 166.612 436.844 164.982 433.217 161.741Z" fill="#E9BB76"/>
<path d="M27.5727 99.2371L70.4816 142.26L88.616 126.055L50.6703 78.597L27.5727 99.2371ZM104.198 161.741C107.888 158.443 109.966 154.813 110.43 150.851C110.894 146.888 109.79 143.411 107.118 140.421C104.389 137.367 101.029 135.848 97.0394 135.866C92.9929 135.82 89.1243 137.446 85.4338 140.743C81.8069 143.984 79.7897 147.618 79.3822 151.644C78.9178 155.607 80.0502 159.115 82.7795 162.17C85.4519 165.16 88.783 166.647 92.7727 166.629C96.7624 166.612 100.571 164.982 104.198 161.741Z" fill="#F1A09B"/>
</svg>
