<svg width="30" height="30" viewBox="0 0 30 30" fill="none" xmlns="http://www.w3.org/2000/svg">
<path d="M18.75 10.0002H26.925C26.4886 8.84377 25.8106 7.79377 24.9363 6.9202L20.5813 2.5627C19.7066 1.68936 18.6563 1.01184 17.5 0.575195V8.7502C17.5 9.44049 18.0596 10.0002 18.75 10.0002Z" fill="white"/>
<path d="M27.47 12.5H18.75C16.6789 12.5 15 10.821 15 8.74998V0.03C14.7987 0.0162305 14.5975 0 14.3937 0H8.74996C5.2999 0.00416016 2.5041 2.79996 2.5 6.25002V23.75C2.5041 27.2 5.2999 29.9959 8.74996 30H21.2499C24.7 29.9959 27.4958 27.2 27.5 23.75V13.1062C27.5 12.9025 27.4837 12.7012 27.47 12.5Z" fill="white"/>
</svg>
