<svg width="469" height="71" viewBox="0 0 469 71" fill="none" xmlns="http://www.w3.org/2000/svg">
<g filter="url(#filter0_f_79_5862)">
<path d="M26.912 19.304V25.88H13.184V32.984H23.456V39.368H13.184V53H4.976V19.304H26.912ZM116.496 25.928C119.824 25.928 122.464 26.936 124.416 28.952C126.4 30.968 127.392 33.768 127.392 37.352V53H119.232V38.456C119.232 36.728 118.768 35.4 117.84 34.472C116.944 33.512 115.696 33.032 114.096 33.032C112.496 33.032 111.232 33.512 110.304 34.472C109.408 35.4 108.96 36.728 108.96 38.456V53H100.8V38.456C100.8 36.728 100.336 35.4 99.4078 34.472C98.5118 33.512 97.2638 33.032 95.6638 33.032C94.0638 33.032 92.7998 33.512 91.8718 34.472C90.9758 35.4 90.5278 36.728 90.5278 38.456V53H82.3198V26.216H90.5278V29.576C91.3598 28.456 92.4478 27.576 93.7918 26.936C95.1358 26.264 96.6558 25.928 98.3518 25.928C100.368 25.928 102.16 26.36 103.728 27.224C105.328 28.088 106.576 29.32 107.472 30.92C108.4 29.448 109.664 28.248 111.264 27.32C112.864 26.392 114.608 25.928 116.496 25.928ZM189.338 23.432C187.898 23.432 186.714 23.016 185.786 22.184C184.89 21.32 184.442 20.264 184.442 19.016C184.442 17.736 184.89 16.68 185.786 15.848C186.714 14.984 187.898 14.552 189.338 14.552C190.746 14.552 191.898 14.984 192.794 15.848C193.722 16.68 194.186 17.736 194.186 19.016C194.186 20.264 193.722 21.32 192.794 22.184C191.898 23.016 190.746 23.432 189.338 23.432ZM193.418 26.216V53H185.21V26.216H193.418ZM211.559 53.384C208.935 53.384 206.567 52.824 204.455 51.704C202.375 50.584 200.727 48.984 199.511 46.904C198.327 44.824 197.735 42.392 197.735 39.608C197.735 36.856 198.343 34.44 199.559 32.36C200.775 30.248 202.439 28.632 204.551 27.512C206.663 26.392 209.031 25.832 211.655 25.832C214.279 25.832 216.647 26.392 218.759 27.512C220.871 28.632 222.535 30.248 223.751 32.36C224.967 34.44 225.575 36.856 225.575 39.608C225.575 42.36 224.951 44.792 223.703 46.904C222.487 48.984 220.807 50.584 218.663 51.704C216.551 52.824 214.183 53.384 211.559 53.384ZM211.559 46.28C213.127 46.28 214.455 45.704 215.543 44.552C216.663 43.4 217.223 41.752 217.223 39.608C217.223 37.464 216.679 35.816 215.591 34.664C214.535 33.512 213.223 32.936 211.655 32.936C210.055 32.936 208.727 33.512 207.671 34.664C206.615 35.784 206.087 37.432 206.087 39.608C206.087 41.752 206.599 43.4 207.623 44.552C208.679 45.704 209.991 46.28 211.559 46.28ZM246.249 25.928C249.385 25.928 251.881 26.952 253.737 29C255.625 31.016 256.569 33.8 256.569 37.352V53H248.409V38.456C248.409 36.664 247.945 35.272 247.017 34.28C246.089 33.288 244.841 32.792 243.273 32.792C241.705 32.792 240.457 33.288 239.529 34.28C238.601 35.272 238.137 36.664 238.137 38.456V53H229.929V26.216H238.137V29.768C238.969 28.584 240.089 27.656 241.497 26.984C242.905 26.28 244.489 25.928 246.249 25.928Z" fill="#073946"/>
<path d="M43.418 53.384C40.794 53.384 38.426 52.824 36.314 51.704C34.234 50.584 32.586 48.984 31.37 46.904C30.186 44.824 29.594 42.392 29.594 39.608C29.594 36.856 30.202 34.44 31.418 32.36C32.634 30.248 34.298 28.632 36.41 27.512C38.522 26.392 40.89 25.832 43.514 25.832C46.138 25.832 48.506 26.392 50.618 27.512C52.73 28.632 54.394 30.248 55.61 32.36C56.826 34.44 57.434 36.856 57.434 39.608C57.434 42.36 56.81 44.792 55.562 46.904C54.346 48.984 52.666 50.584 50.522 51.704C48.41 52.824 46.042 53.384 43.418 53.384ZM43.418 46.28C44.986 46.28 46.314 45.704 47.402 44.552C48.522 43.4 49.082 41.752 49.082 39.608C49.082 37.464 48.538 35.816 47.45 34.664C46.394 33.512 45.082 32.936 43.514 32.936C41.914 32.936 40.586 33.512 39.53 34.664C38.474 35.784 37.946 37.432 37.946 39.608C37.946 41.752 38.458 43.4 39.482 44.552C40.538 45.704 41.85 46.28 43.418 46.28ZM69.9965 30.68C70.9565 29.208 72.1565 28.056 73.5965 27.224C75.0365 26.36 76.6365 25.928 78.3965 25.928V34.616H76.1405C74.0925 34.616 72.5565 35.064 71.5325 35.96C70.5085 36.824 69.9965 38.36 69.9965 40.568V53H61.7885V26.216H69.9965V30.68Z" fill="#67AFC3"/>
<path d="M131.5 39.56C131.5 36.808 132.012 34.392 133.036 32.312C134.092 30.232 135.516 28.632 137.308 27.512C139.1 26.392 141.1 25.832 143.308 25.832C145.196 25.832 146.844 26.216 148.252 26.984C149.692 27.752 150.796 28.76 151.564 30.008V26.216H159.772V53H151.564V49.208C150.764 50.456 149.644 51.464 148.204 52.232C146.796 53 145.148 53.384 143.26 53.384C141.084 53.384 139.1 52.824 137.308 51.704C135.516 50.552 134.092 48.936 133.036 46.856C132.012 44.744 131.5 42.312 131.5 39.56ZM151.564 39.608C151.564 37.56 150.988 35.944 149.836 34.76C148.716 33.576 147.34 32.984 145.708 32.984C144.076 32.984 142.684 33.576 141.532 34.76C140.412 35.912 139.852 37.512 139.852 39.56C139.852 41.608 140.412 43.24 141.532 44.456C142.684 45.64 144.076 46.232 145.708 46.232C147.34 46.232 148.716 45.64 149.836 44.456C150.988 43.272 151.564 41.656 151.564 39.608ZM180.638 46.04V53H176.462C173.486 53 171.166 52.28 169.502 50.84C167.838 49.368 167.006 46.984 167.006 43.688V33.032H163.742V26.216H167.006V19.688H175.214V26.216H180.59V33.032H175.214V43.784C175.214 44.584 175.406 45.16 175.79 45.512C176.174 45.864 176.814 46.04 177.71 46.04H180.638Z" fill="#89AFB9"/>
<path d="M273.169 53.384C270.833 53.384 268.753 52.984 266.929 52.184C265.105 51.384 263.665 50.296 262.609 48.92C261.553 47.512 260.961 45.944 260.833 44.216H268.945C269.041 45.144 269.473 45.896 270.241 46.472C271.009 47.048 271.953 47.336 273.073 47.336C274.097 47.336 274.881 47.144 275.425 46.76C276.001 46.344 276.289 45.816 276.289 45.176C276.289 44.408 275.889 43.848 275.089 43.496C274.289 43.112 272.993 42.696 271.201 42.248C269.281 41.8 267.681 41.336 266.401 40.856C265.121 40.344 264.017 39.56 263.089 38.504C262.161 37.416 261.697 35.96 261.697 34.136C261.697 32.6 262.113 31.208 262.945 29.96C263.809 28.68 265.057 27.672 266.689 26.936C268.353 26.2 270.321 25.832 272.593 25.832C275.953 25.832 278.593 26.664 280.513 28.328C282.465 29.992 283.585 32.2 283.873 34.952H276.289C276.161 34.024 275.745 33.288 275.041 32.744C274.369 32.2 273.473 31.928 272.353 31.928C271.393 31.928 270.657 32.12 270.145 32.504C269.633 32.856 269.377 33.352 269.377 33.992C269.377 34.76 269.777 35.336 270.577 35.72C271.409 36.104 272.689 36.488 274.417 36.872C276.401 37.384 278.017 37.896 279.265 38.408C280.513 38.888 281.601 39.688 282.529 40.808C283.489 41.896 283.985 43.368 284.017 45.224C284.017 46.792 283.569 48.2 282.673 49.448C281.809 50.664 280.545 51.624 278.881 52.328C277.249 53.032 275.345 53.384 273.169 53.384Z" fill="#85DEDE"/>
</g>
<path d="M26.912 19.304V25.88H13.184V32.984H23.456V39.368H13.184V53H4.976V19.304H26.912ZM116.496 25.928C119.824 25.928 122.464 26.936 124.416 28.952C126.4 30.968 127.392 33.768 127.392 37.352V53H119.232V38.456C119.232 36.728 118.768 35.4 117.84 34.472C116.944 33.512 115.696 33.032 114.096 33.032C112.496 33.032 111.232 33.512 110.304 34.472C109.408 35.4 108.96 36.728 108.96 38.456V53H100.8V38.456C100.8 36.728 100.336 35.4 99.4078 34.472C98.5118 33.512 97.2638 33.032 95.6638 33.032C94.0638 33.032 92.7998 33.512 91.8718 34.472C90.9758 35.4 90.5278 36.728 90.5278 38.456V53H82.3198V26.216H90.5278V29.576C91.3598 28.456 92.4478 27.576 93.7918 26.936C95.1358 26.264 96.6558 25.928 98.3518 25.928C100.368 25.928 102.16 26.36 103.728 27.224C105.328 28.088 106.576 29.32 107.472 30.92C108.4 29.448 109.664 28.248 111.264 27.32C112.864 26.392 114.608 25.928 116.496 25.928ZM189.338 23.432C187.898 23.432 186.714 23.016 185.786 22.184C184.89 21.32 184.442 20.264 184.442 19.016C184.442 17.736 184.89 16.68 185.786 15.848C186.714 14.984 187.898 14.552 189.338 14.552C190.746 14.552 191.898 14.984 192.794 15.848C193.722 16.68 194.186 17.736 194.186 19.016C194.186 20.264 193.722 21.32 192.794 22.184C191.898 23.016 190.746 23.432 189.338 23.432ZM193.418 26.216V53H185.21V26.216H193.418ZM211.559 53.384C208.935 53.384 206.567 52.824 204.455 51.704C202.375 50.584 200.727 48.984 199.511 46.904C198.327 44.824 197.735 42.392 197.735 39.608C197.735 36.856 198.343 34.44 199.559 32.36C200.775 30.248 202.439 28.632 204.551 27.512C206.663 26.392 209.031 25.832 211.655 25.832C214.279 25.832 216.647 26.392 218.759 27.512C220.871 28.632 222.535 30.248 223.751 32.36C224.967 34.44 225.575 36.856 225.575 39.608C225.575 42.36 224.951 44.792 223.703 46.904C222.487 48.984 220.807 50.584 218.663 51.704C216.551 52.824 214.183 53.384 211.559 53.384ZM211.559 46.28C213.127 46.28 214.455 45.704 215.543 44.552C216.663 43.4 217.223 41.752 217.223 39.608C217.223 37.464 216.679 35.816 215.591 34.664C214.535 33.512 213.223 32.936 211.655 32.936C210.055 32.936 208.727 33.512 207.671 34.664C206.615 35.784 206.087 37.432 206.087 39.608C206.087 41.752 206.599 43.4 207.623 44.552C208.679 45.704 209.991 46.28 211.559 46.28ZM246.249 25.928C249.385 25.928 251.881 26.952 253.737 29C255.625 31.016 256.569 33.8 256.569 37.352V53H248.409V38.456C248.409 36.664 247.945 35.272 247.017 34.28C246.089 33.288 244.841 32.792 243.273 32.792C241.705 32.792 240.457 33.288 239.529 34.28C238.601 35.272 238.137 36.664 238.137 38.456V53H229.929V26.216H238.137V29.768C238.969 28.584 240.089 27.656 241.497 26.984C242.905 26.28 244.489 25.928 246.249 25.928Z" fill="#073946"/>
<path d="M43.418 53.384C40.794 53.384 38.426 52.824 36.314 51.704C34.234 50.584 32.586 48.984 31.37 46.904C30.186 44.824 29.594 42.392 29.594 39.608C29.594 36.856 30.202 34.44 31.418 32.36C32.634 30.248 34.298 28.632 36.41 27.512C38.522 26.392 40.89 25.832 43.514 25.832C46.138 25.832 48.506 26.392 50.618 27.512C52.73 28.632 54.394 30.248 55.61 32.36C56.826 34.44 57.434 36.856 57.434 39.608C57.434 42.36 56.81 44.792 55.562 46.904C54.346 48.984 52.666 50.584 50.522 51.704C48.41 52.824 46.042 53.384 43.418 53.384ZM43.418 46.28C44.986 46.28 46.314 45.704 47.402 44.552C48.522 43.4 49.082 41.752 49.082 39.608C49.082 37.464 48.538 35.816 47.45 34.664C46.394 33.512 45.082 32.936 43.514 32.936C41.914 32.936 40.586 33.512 39.53 34.664C38.474 35.784 37.946 37.432 37.946 39.608C37.946 41.752 38.458 43.4 39.482 44.552C40.538 45.704 41.85 46.28 43.418 46.28ZM69.9965 30.68C70.9565 29.208 72.1565 28.056 73.5965 27.224C75.0365 26.36 76.6365 25.928 78.3965 25.928V34.616H76.1405C74.0925 34.616 72.5565 35.064 71.5325 35.96C70.5085 36.824 69.9965 38.36 69.9965 40.568V53H61.7885V26.216H69.9965V30.68Z" fill="#67AFC3"/>
<path d="M131.5 39.56C131.5 36.808 132.012 34.392 133.036 32.312C134.092 30.232 135.516 28.632 137.308 27.512C139.1 26.392 141.1 25.832 143.308 25.832C145.196 25.832 146.844 26.216 148.252 26.984C149.692 27.752 150.796 28.76 151.564 30.008V26.216H159.772V53H151.564V49.208C150.764 50.456 149.644 51.464 148.204 52.232C146.796 53 145.148 53.384 143.26 53.384C141.084 53.384 139.1 52.824 137.308 51.704C135.516 50.552 134.092 48.936 133.036 46.856C132.012 44.744 131.5 42.312 131.5 39.56ZM151.564 39.608C151.564 37.56 150.988 35.944 149.836 34.76C148.716 33.576 147.34 32.984 145.708 32.984C144.076 32.984 142.684 33.576 141.532 34.76C140.412 35.912 139.852 37.512 139.852 39.56C139.852 41.608 140.412 43.24 141.532 44.456C142.684 45.64 144.076 46.232 145.708 46.232C147.34 46.232 148.716 45.64 149.836 44.456C150.988 43.272 151.564 41.656 151.564 39.608ZM180.638 46.04V53H176.462C173.486 53 171.166 52.28 169.502 50.84C167.838 49.368 167.006 46.984 167.006 43.688V33.032H163.742V26.216H167.006V19.688H175.214V26.216H180.59V33.032H175.214V43.784C175.214 44.584 175.406 45.16 175.79 45.512C176.174 45.864 176.814 46.04 177.71 46.04H180.638Z" fill="#89AFB9"/>
<path d="M273.169 53.384C270.833 53.384 268.753 52.984 266.929 52.184C265.105 51.384 263.665 50.296 262.609 48.92C261.553 47.512 260.961 45.944 260.833 44.216H268.945C269.041 45.144 269.473 45.896 270.241 46.472C271.009 47.048 271.953 47.336 273.073 47.336C274.097 47.336 274.881 47.144 275.425 46.76C276.001 46.344 276.289 45.816 276.289 45.176C276.289 44.408 275.889 43.848 275.089 43.496C274.289 43.112 272.993 42.696 271.201 42.248C269.281 41.8 267.681 41.336 266.401 40.856C265.121 40.344 264.017 39.56 263.089 38.504C262.161 37.416 261.697 35.96 261.697 34.136C261.697 32.6 262.113 31.208 262.945 29.96C263.809 28.68 265.057 27.672 266.689 26.936C268.353 26.2 270.321 25.832 272.593 25.832C275.953 25.832 278.593 26.664 280.513 28.328C282.465 29.992 283.585 32.2 283.873 34.952H276.289C276.161 34.024 275.745 33.288 275.041 32.744C274.369 32.2 273.473 31.928 272.353 31.928C271.393 31.928 270.657 32.12 270.145 32.504C269.633 32.856 269.377 33.352 269.377 33.992C269.377 34.76 269.777 35.336 270.577 35.72C271.409 36.104 272.689 36.488 274.417 36.872C276.401 37.384 278.017 37.896 279.265 38.408C280.513 38.888 281.601 39.688 282.529 40.808C283.489 41.896 283.985 43.368 284.017 45.224C284.017 46.792 283.569 48.2 282.673 49.448C281.809 50.664 280.545 51.624 278.881 52.328C277.249 53.032 275.345 53.384 273.169 53.384Z" fill="#85DEDE"/>
<defs>
<filter id="filter0_f_79_5862" x="0.975952" y="10.552" width="287.041" height="46.832" filterUnits="userSpaceOnUse" color-interpolation-filters="sRGB">
<feFlood flood-opacity="0" result="BackgroundImageFix"/>
<feBlend mode="normal" in="SourceGraphic" in2="BackgroundImageFix" result="shape"/>
<feGaussianBlur stdDeviation="2" result="effect1_foregroundBlur_79_5862"/>
</filter>
</defs>
</svg>
