<svg width="246" height="36" viewBox="0 0 246 36" fill="none" xmlns="http://www.w3.org/2000/svg">
<path d="M20.512 35L9.184 20.12V35H0.976V1.304H9.184V16.088L20.416 1.304H30.064L17.008 17.816L30.544 35H20.512ZM42.6528 1.304V35H34.4448V1.304H42.6528ZM174.108 29.048H161.532L159.516 35H150.924L163.116 1.304H172.62L184.812 35H176.124L174.108 29.048ZM171.996 22.712L167.82 10.376L163.692 22.712H171.996ZM233.293 7.88V14.696H244.285V21.032H233.293V28.424H245.725V35H225.085V1.304H245.725V7.88H233.293Z" fill="#1BAAD1"/>
<path d="M61.225 1.304C64.777 1.304 67.881 2.008 70.537 3.416C73.193 4.824 75.241 6.808 76.681 9.368C78.153 11.896 78.889 14.824 78.889 18.152C78.889 21.448 78.153 24.376 76.681 26.936C75.241 29.496 73.177 31.48 70.489 32.888C67.833 34.296 64.745 35 61.225 35H48.601V1.304H61.225ZM60.697 27.896C63.801 27.896 66.217 27.048 67.945 25.352C69.673 23.656 70.537 21.256 70.537 18.152C70.537 15.048 69.673 12.632 67.945 10.904C66.217 9.176 63.801 8.312 60.697 8.312H56.809V27.896H60.697ZM105.84 35.336C103.376 35.336 101.168 34.936 99.2159 34.136C97.2639 33.336 95.6959 32.152 94.5119 30.584C93.3599 29.016 92.7519 27.128 92.6879 24.92H101.424C101.552 26.168 101.984 27.128 102.72 27.8C103.456 28.44 104.416 28.76 105.6 28.76C106.816 28.76 107.776 28.488 108.48 27.944C109.184 27.368 109.536 26.584 109.536 25.592C109.536 24.76 109.248 24.072 108.672 23.528C108.128 22.984 107.44 22.536 106.608 22.184C105.808 21.832 104.656 21.432 103.152 20.984C100.976 20.312 99.1999 19.64 97.8239 18.968C96.4479 18.296 95.2639 17.304 94.2719 15.992C93.2799 14.68 92.7839 12.968 92.7839 10.856C92.7839 7.72 93.9199 5.272 96.1919 3.512C98.4639 1.72 101.424 0.823999 105.072 0.823999C108.784 0.823999 111.776 1.72 114.048 3.512C116.32 5.272 117.536 7.736 117.696 10.904H108.816C108.752 9.816 108.352 8.968 107.616 8.36C106.88 7.72 105.936 7.4 104.784 7.4C103.792 7.4 102.992 7.672 102.384 8.216C101.776 8.728 101.472 9.48 101.472 10.472C101.472 11.56 101.984 12.408 103.008 13.016C104.032 13.624 105.632 14.28 107.808 14.984C109.984 15.72 111.744 16.424 113.088 17.096C114.464 17.768 115.648 18.744 116.64 20.024C117.632 21.304 118.128 22.952 118.128 24.968C118.128 26.888 117.632 28.632 116.64 30.2C115.68 31.768 114.272 33.016 112.416 33.944C110.56 34.872 108.368 35.336 105.84 35.336ZM148.859 12.152C148.859 14.104 148.411 15.896 147.515 17.528C146.619 19.128 145.243 20.424 143.387 21.416C141.531 22.408 139.227 22.904 136.475 22.904H131.387V35H123.179V1.304H136.475C139.163 1.304 141.435 1.768 143.291 2.696C145.147 3.624 146.539 4.904 147.467 6.536C148.395 8.168 148.859 10.04 148.859 12.152ZM135.851 16.376C137.419 16.376 138.587 16.008 139.355 15.272C140.123 14.536 140.507 13.496 140.507 12.152C140.507 10.808 140.123 9.768 139.355 9.032C138.587 8.296 137.419 7.928 135.851 7.928H131.387V16.376H135.851Z" fill="#F1C4D3"/>
<path d="M187.131 18.104C187.131 14.776 187.851 11.816 189.291 9.224C190.731 6.6 192.731 4.568 195.291 3.128C197.883 1.656 200.811 0.919998 204.075 0.919998C208.075 0.919998 211.499 1.976 214.347 4.088C217.195 6.2 219.099 9.08 220.059 12.728H211.035C210.363 11.32 209.403 10.248 208.155 9.512C206.939 8.776 205.547 8.408 203.979 8.408C201.451 8.408 199.403 9.288 197.835 11.048C196.267 12.808 195.483 15.16 195.483 18.104C195.483 21.048 196.267 23.4 197.835 25.16C199.403 26.92 201.451 27.8 203.979 27.8C205.547 27.8 206.939 27.432 208.155 26.696C209.403 25.96 210.363 24.888 211.035 23.48H220.059C219.099 27.128 217.195 30.008 214.347 32.12C211.499 34.2 208.075 35.24 204.075 35.24C200.811 35.24 197.883 34.52 195.291 33.08C192.731 31.608 190.731 29.576 189.291 26.984C187.851 24.392 187.131 21.432 187.131 18.104Z" fill="#073946"/>
</svg>
