<svg width="29" height="29" viewBox="0 0 29 29" fill="none" xmlns="http://www.w3.org/2000/svg">
<g clip-path="url(#clip0_103_2590)">
<path d="M28.9444 6.69629L18.7727 16.868C17.6385 17.9993 16.1019 18.6347 14.5 18.6347C12.8981 18.6347 11.3615 17.9993 10.2273 16.868L0.0555833 6.69629C0.0386667 6.88721 0 7.06 0 7.24971V21.7497C0.00191866 23.3515 0.639066 24.8871 1.77168 26.0197C2.9043 27.1523 4.43991 27.7895 6.04167 27.7914H22.9583C24.5601 27.7895 26.0957 27.1523 27.2283 26.0197C28.3609 24.8871 28.9981 23.3515 29 21.7497V7.24971C29 7.06 28.9613 6.88721 28.9444 6.69629Z" fill="#374957"/>
<path d="M17.0645 15.1594L28.1014 4.1213C27.5668 3.23477 26.8127 2.50097 25.9119 1.99068C25.0111 1.48039 23.994 1.21084 22.9588 1.20801H6.04208C5.00681 1.21084 3.98973 1.48039 3.08895 1.99068C2.18816 2.50097 1.43408 3.23477 0.899414 4.1213L11.9363 15.1594C12.6173 15.8377 13.5393 16.2185 14.5004 16.2185C15.4615 16.2185 16.3835 15.8377 17.0645 15.1594Z" fill="#374957"/>
</g>
<defs>
<clipPath id="clip0_103_2590">
<rect width="29" height="29" fill="white"/>
</clipPath>
</defs>
</svg>
