<svg width="38" height="37" viewBox="0 0 38 37" fill="none" xmlns="http://www.w3.org/2000/svg">
<g clip-path="url(#clip0_150_4284)">
<path d="M25.3333 0.4625C26.4508 0.835549 27.4677 1.44889 28.3084 2.257L30.9304 4.81308C31.7613 5.63061 32.3919 6.62032 32.775 7.70833H25.3333V0.4625ZM22.1667 18.5H15.8333C15.4134 18.5 15.0107 18.6624 14.7137 18.9515C14.4168 19.2407 14.25 19.6328 14.25 20.0417C14.25 20.4505 14.4168 20.8427 14.7137 21.1318C15.0107 21.4209 15.4134 21.5833 15.8333 21.5833H22.1667C22.5866 21.5833 22.9893 21.4209 23.2863 21.1318C23.5832 20.8427 23.75 20.4505 23.75 20.0417C23.75 19.6328 23.5832 19.2407 23.2863 18.9515C22.9893 18.6624 22.5866 18.5 22.1667 18.5ZM25.3333 10.7917C24.4935 10.7917 23.688 10.4668 23.0942 9.88858C22.5003 9.31034 22.1667 8.52608 22.1667 7.70833V0H12.6667C10.5678 0.00244795 8.55563 0.81536 7.07151 2.26042C5.5874 3.70548 4.75251 5.66471 4.75 7.70833V29.2917C4.75251 31.3353 5.5874 33.2945 7.07151 34.7396C8.55563 36.1846 10.5678 36.9976 12.6667 37H25.3333C27.4322 36.9976 29.4444 36.1846 30.9285 34.7396C32.4126 33.2945 33.2475 31.3353 33.25 29.2917V10.7917H25.3333ZM25.3333 30.8333H12.6667C12.2467 30.8333 11.844 30.6709 11.5471 30.3818C11.2501 30.0927 11.0833 29.7005 11.0833 29.2917C11.0833 28.8828 11.2501 28.4907 11.5471 28.2015C11.844 27.9124 12.2467 27.75 12.6667 27.75H25.3333C25.7533 27.75 26.156 27.9124 26.4529 28.2015C26.7499 28.4907 26.9167 28.8828 26.9167 29.2917C26.9167 29.7005 26.7499 30.0927 26.4529 30.3818C26.156 30.6709 25.7533 30.8333 25.3333 30.8333ZM22.1667 24.6667H15.8333C14.5736 24.6667 13.3654 24.1794 12.4746 23.312C11.5838 22.4447 11.0833 21.2683 11.0833 20.0417C11.0833 18.815 11.5838 17.6387 12.4746 16.7713C13.3654 15.9039 14.5736 15.4167 15.8333 15.4167H22.1667C23.4264 15.4167 24.6346 15.9039 25.5254 16.7713C26.4162 17.6387 26.9167 18.815 26.9167 20.0417C26.9167 21.2683 26.4162 22.4447 25.5254 23.312C24.6346 24.1794 23.4264 24.6667 22.1667 24.6667Z" fill="#FF2222"/>
</g>
<defs>
<clipPath id="clip0_150_4284">
<rect width="38" height="37" fill="white"/>
</clipPath>
</defs>
</svg>
