<svg  viewBox="0 0 382 111" fill="none" xmlns="http://www.w3.org/2000/svg">
<path d="M9.184 2.48V38H0.976V2.48H9.184ZM40.3802 24.176C40.3802 24.944 40.3323 25.744 40.2363 26.576H21.6603C21.7883 28.24 22.3163 29.52 23.2443 30.416C24.2043 31.28 25.3723 31.712 26.7483 31.712C28.7963 31.712 30.2203 30.848 31.0203 29.12H39.7563C39.3083 30.88 38.4923 32.464 37.3083 33.872C36.1563 35.28 34.7003 36.384 32.9403 37.184C31.1803 37.984 29.2123 38.384 27.0363 38.384C24.4123 38.384 22.0763 37.824 20.0283 36.704C17.9803 35.584 16.3803 33.984 15.2283 31.904C14.0763 29.824 13.5003 27.392 13.5003 24.608C13.5003 21.824 14.0603 19.392 15.1803 17.312C16.3323 15.232 17.9323 13.632 19.9803 12.512C22.0283 11.392 24.3803 10.832 27.0363 10.832C29.6283 10.832 31.9323 11.376 33.9483 12.464C35.9643 13.552 37.5323 15.104 38.6523 17.12C39.8043 19.136 40.3802 21.488 40.3802 24.176ZM31.9803 22.016C31.9803 20.608 31.5003 19.488 30.5403 18.656C29.5803 17.824 28.3803 17.408 26.9403 17.408C25.5643 17.408 24.3963 17.808 23.4363 18.608C22.5083 19.408 21.9323 20.544 21.7083 22.016H31.9803ZM43.0784 24.56C43.0784 21.808 43.5904 19.392 44.6144 17.312C45.6704 15.232 47.0944 13.632 48.8864 12.512C50.6784 11.392 52.6784 10.832 54.8864 10.832C56.7744 10.832 58.4224 11.216 59.8304 11.984C61.2704 12.752 62.3744 13.76 63.1424 15.008V11.216H71.3504V38H63.1424V34.208C62.3424 35.456 61.2224 36.464 59.7824 37.232C58.3744 38 56.7264 38.384 54.8384 38.384C52.6624 38.384 50.6784 37.824 48.8864 36.704C47.0944 35.552 45.6704 33.936 44.6144 31.856C43.5904 29.744 43.0784 27.312 43.0784 24.56ZM63.1424 24.608C63.1424 22.56 62.5664 20.944 61.4144 19.76C60.2944 18.576 58.9184 17.984 57.2864 17.984C55.6544 17.984 54.2624 18.576 53.1104 19.76C51.9904 20.912 51.4304 22.512 51.4304 24.56C51.4304 26.608 51.9904 28.24 53.1104 29.456C54.2624 30.64 55.6544 31.232 57.2864 31.232C58.9184 31.232 60.2944 30.64 61.4144 29.456C62.5664 28.272 63.1424 26.656 63.1424 24.608ZM85.4965 15.68C86.4565 14.208 87.6565 13.056 89.0965 12.224C90.5365 11.36 92.1365 10.928 93.8965 10.928V19.616H91.6405C89.5925 19.616 88.0565 20.064 87.0325 20.96C86.0085 21.824 85.4965 23.36 85.4965 25.568V38H77.2885V11.216H85.4965V15.68ZM114.14 10.928C117.276 10.928 119.772 11.952 121.628 14C123.516 16.016 124.46 18.8 124.46 22.352V38H116.3V23.456C116.3 21.664 115.836 20.272 114.908 19.28C113.98 18.288 112.732 17.792 111.164 17.792C109.596 17.792 108.348 18.288 107.42 19.28C106.492 20.272 106.028 21.664 106.028 23.456V38H97.8198V11.216H106.028V14.768C106.86 13.584 107.98 12.656 109.388 11.984C110.796 11.28 112.38 10.928 114.14 10.928Z" fill="#FF2222"/>
<path d="M151.231 38.384C148.895 38.384 146.815 37.984 144.991 37.184C143.167 36.384 141.727 35.296 140.671 33.92C139.615 32.512 139.023 30.944 138.895 29.216H147.007C147.103 30.144 147.535 30.896 148.303 31.472C149.071 32.048 150.015 32.336 151.135 32.336C152.159 32.336 152.943 32.144 153.487 31.76C154.063 31.344 154.351 30.816 154.351 30.176C154.351 29.408 153.951 28.848 153.151 28.496C152.351 28.112 151.055 27.696 149.263 27.248C147.343 26.8 145.743 26.336 144.463 25.856C143.183 25.344 142.079 24.56 141.151 23.504C140.223 22.416 139.759 20.96 139.759 19.136C139.759 17.6 140.175 16.208 141.007 14.96C141.871 13.68 143.119 12.672 144.751 11.936C146.415 11.2 148.383 10.832 150.655 10.832C154.015 10.832 156.655 11.664 158.575 13.328C160.527 14.992 161.647 17.2 161.935 19.952H154.351C154.223 19.024 153.807 18.288 153.103 17.744C152.431 17.2 151.535 16.928 150.415 16.928C149.455 16.928 148.719 17.12 148.207 17.504C147.695 17.856 147.439 18.352 147.439 18.992C147.439 19.76 147.839 20.336 148.639 20.72C149.471 21.104 150.751 21.488 152.479 21.872C154.463 22.384 156.079 22.896 157.327 23.408C158.575 23.888 159.663 24.688 160.591 25.808C161.551 26.896 162.047 28.368 162.079 30.224C162.079 31.792 161.631 33.2 160.735 34.448C159.871 35.664 158.607 36.624 156.943 37.328C155.311 38.032 153.407 38.384 151.231 38.384ZM183.469 38L175.309 26.768V38H167.101V2.48H175.309V22.112L183.421 11.216H193.549L182.413 24.656L193.645 38H183.469ZM211.701 31.04V38H207.525C204.549 38 202.229 37.28 200.565 35.84C198.901 34.368 198.069 31.984 198.069 28.688V18.032H194.805V11.216H198.069V4.688H206.277V11.216H211.653V18.032H206.277V28.784C206.277 29.584 206.469 30.16 206.853 30.512C207.237 30.864 207.877 31.04 208.773 31.04H211.701ZM241.521 24.176C241.521 24.944 241.473 25.744 241.377 26.576H222.801C222.929 28.24 223.457 29.52 224.385 30.416C225.345 31.28 226.513 31.712 227.889 31.712C229.937 31.712 231.361 30.848 232.161 29.12H240.897C240.449 30.88 239.633 32.464 238.449 33.872C237.297 35.28 235.841 36.384 234.081 37.184C232.321 37.984 230.353 38.384 228.177 38.384C225.553 38.384 223.217 37.824 221.169 36.704C219.121 35.584 217.521 33.984 216.369 31.904C215.217 29.824 214.641 27.392 214.641 24.608C214.641 21.824 215.201 19.392 216.321 17.312C217.473 15.232 219.073 13.632 221.121 12.512C223.169 11.392 225.521 10.832 228.177 10.832C230.769 10.832 233.073 11.376 235.089 12.464C237.105 13.552 238.673 15.104 239.793 17.12C240.945 19.136 241.521 21.488 241.521 24.176ZM233.121 22.016C233.121 20.608 232.641 19.488 231.681 18.656C230.721 17.824 229.521 17.408 228.081 17.408C226.705 17.408 225.537 17.808 224.577 18.608C223.649 19.408 223.073 20.544 222.849 22.016H233.121ZM244.219 24.608C244.219 21.824 244.779 19.392 245.899 17.312C247.051 15.232 248.635 13.632 250.651 12.512C252.699 11.392 255.035 10.832 257.659 10.832C261.019 10.832 263.819 11.712 266.059 13.472C268.331 15.232 269.819 17.712 270.523 20.912H261.787C261.051 18.864 259.627 17.84 257.515 17.84C256.011 17.84 254.811 18.432 253.915 19.616C253.019 20.768 252.571 22.432 252.571 24.608C252.571 26.784 253.019 28.464 253.915 29.648C254.811 30.8 256.011 31.376 257.515 31.376C259.627 31.376 261.051 30.352 261.787 28.304H270.523C269.819 31.44 268.331 33.904 266.059 35.696C263.787 37.488 260.987 38.384 257.659 38.384C255.035 38.384 252.699 37.824 250.651 36.704C248.635 35.584 247.051 33.984 245.899 31.904C244.779 29.824 244.219 27.392 244.219 24.608ZM291.378 10.928C294.45 10.928 296.914 11.952 298.77 14C300.626 16.016 301.554 18.8 301.554 22.352V38H293.394V23.456C293.394 21.664 292.93 20.272 292.002 19.28C291.074 18.288 289.826 17.792 288.258 17.792C286.69 17.792 285.442 18.288 284.514 19.28C283.586 20.272 283.122 21.664 283.122 23.456V38H274.914V2.48H283.122V14.816C283.954 13.632 285.09 12.688 286.53 11.984C287.97 11.28 289.586 10.928 291.378 10.928Z" fill="#E99516"/>
<path d="M330.869 18.032H326.453V38H318.245V18.032H315.269V11.216H318.245V10.448C318.245 7.152 319.189 4.656 321.077 2.96C322.965 1.232 325.733 0.367998 329.381 0.367998C329.989 0.367998 330.437 0.383998 330.725 0.415998V7.376C329.157 7.28 328.053 7.504 327.413 8.048C326.773 8.592 326.453 9.568 326.453 10.976V11.216H330.869V18.032ZM346.918 38.384C344.294 38.384 341.926 37.824 339.814 36.704C337.734 35.584 336.086 33.984 334.87 31.904C333.686 29.824 333.094 27.392 333.094 24.608C333.094 21.856 333.702 19.44 334.918 17.36C336.134 15.248 337.798 13.632 339.91 12.512C342.022 11.392 344.39 10.832 347.014 10.832C349.638 10.832 352.006 11.392 354.118 12.512C356.23 13.632 357.894 15.248 359.11 17.36C360.326 19.44 360.934 21.856 360.934 24.608C360.934 27.36 360.31 29.792 359.062 31.904C357.846 33.984 356.166 35.584 354.022 36.704C351.91 37.824 349.542 38.384 346.918 38.384ZM346.918 31.28C348.486 31.28 349.814 30.704 350.902 29.552C352.022 28.4 352.582 26.752 352.582 24.608C352.582 22.464 352.038 20.816 350.95 19.664C349.894 18.512 348.582 17.936 347.014 17.936C345.414 17.936 344.086 18.512 343.03 19.664C341.974 20.784 341.446 22.432 341.446 24.608C341.446 26.752 341.958 28.4 342.982 29.552C344.038 30.704 345.35 31.28 346.918 31.28ZM373.497 15.68C374.457 14.208 375.657 13.056 377.097 12.224C378.537 11.36 380.137 10.928 381.897 10.928V19.616H379.641C377.593 19.616 376.057 20.064 375.033 20.96C374.009 21.824 373.497 23.36 373.497 25.568V38H365.289V11.216H373.497V15.68Z" fill="#1BAAD1"/>
<path d="M17.344 110L9.184 98.768V110H0.976V74.48H9.184V94.112L17.296 83.216H27.424L16.288 96.656L27.52 110H17.344Z" fill="#105B70" fill-opacity="0.81"/>
<path d="M34.7759 80.432C33.3359 80.432 32.1519 80.016 31.2239 79.184C30.3279 78.32 29.8799 77.264 29.8799 76.016C29.8799 74.736 30.3279 73.68 31.2239 72.848C32.1519 71.984 33.3359 71.552 34.7759 71.552C36.1839 71.552 37.3359 71.984 38.2319 72.848C39.1599 73.68 39.6239 74.736 39.6239 76.016C39.6239 77.264 39.1599 78.32 38.2319 79.184C37.3359 80.016 36.1839 80.432 34.7759 80.432ZM38.8559 83.216V110H30.6479V83.216H38.8559ZM43.1721 96.56C43.1721 93.808 43.6841 91.392 44.7081 89.312C45.7641 87.232 47.1881 85.632 48.9801 84.512C50.7721 83.392 52.7721 82.832 54.9801 82.832C56.7401 82.832 58.3401 83.2 59.7801 83.936C61.2521 84.672 62.4041 85.664 63.2361 86.912V74.48H71.4441V110H63.2361V106.16C62.4681 107.44 61.3641 108.464 59.9241 109.232C58.5161 110 56.8681 110.384 54.9801 110.384C52.7721 110.384 50.7721 109.824 48.9801 108.704C47.1881 107.552 45.7641 105.936 44.7081 103.856C43.6841 101.744 43.1721 99.312 43.1721 96.56ZM63.2361 96.608C63.2361 94.56 62.6601 92.944 61.5081 91.76C60.3881 90.576 59.0121 89.984 57.3801 89.984C55.7481 89.984 54.3561 90.576 53.2041 91.76C52.0841 92.912 51.5241 94.512 51.5241 96.56C51.5241 98.608 52.0841 100.24 53.2041 101.456C54.3561 102.64 55.7481 103.232 57.3801 103.232C59.0121 103.232 60.3881 102.64 61.5081 101.456C62.6601 100.272 63.2361 98.656 63.2361 96.608ZM88.2783 110.384C85.9423 110.384 83.8623 109.984 82.0383 109.184C80.2143 108.384 78.7743 107.296 77.7183 105.92C76.6623 104.512 76.0703 102.944 75.9423 101.216H84.0543C84.1503 102.144 84.5823 102.896 85.3503 103.472C86.1183 104.048 87.0623 104.336 88.1823 104.336C89.2063 104.336 89.9903 104.144 90.5343 103.76C91.1103 103.344 91.3983 102.816 91.3983 102.176C91.3983 101.408 90.9983 100.848 90.1983 100.496C89.3983 100.112 88.1023 99.696 86.3103 99.248C84.3903 98.8 82.7903 98.336 81.5103 97.856C80.2303 97.344 79.1263 96.56 78.1983 95.504C77.2703 94.416 76.8063 92.96 76.8063 91.136C76.8063 89.6 77.2223 88.208 78.0543 86.96C78.9183 85.68 80.1663 84.672 81.7983 83.936C83.4623 83.2 85.4303 82.832 87.7023 82.832C91.0623 82.832 93.7023 83.664 95.6223 85.328C97.5743 86.992 98.6943 89.2 98.9823 91.952H91.3983C91.2703 91.024 90.8543 90.288 90.1503 89.744C89.4783 89.2 88.5823 88.928 87.4623 88.928C86.5023 88.928 85.7663 89.12 85.2543 89.504C84.7423 89.856 84.4863 90.352 84.4863 90.992C84.4863 91.76 84.8863 92.336 85.6863 92.72C86.5183 93.104 87.7983 93.488 89.5263 93.872C91.5103 94.384 93.1263 94.896 94.3743 95.408C95.6223 95.888 96.7103 96.688 97.6383 97.808C98.5983 98.896 99.0943 100.368 99.1263 102.224C99.1263 103.792 98.6783 105.2 97.7823 106.448C96.9183 107.664 95.6543 108.624 93.9903 109.328C92.3583 110.032 90.4543 110.384 88.2783 110.384Z" fill="#105B70"/>
</svg>
