<svg width="471" height="72" viewBox="0 0 471 72" fill="none" xmlns="http://www.w3.org/2000/svg">
<g filter="url(#filter0_f_15_3108)">
<path d="M19.6 19.304C23.152 19.304 26.256 20.008 28.912 21.416C31.568 22.824 33.616 24.808 35.056 27.368C36.528 29.896 37.264 32.824 37.264 36.152C37.264 39.448 36.528 42.376 35.056 44.936C33.616 47.496 31.552 49.48 28.864 50.888C26.208 52.296 23.12 53 19.6 53H6.976V19.304H19.6ZM19.072 45.896C22.176 45.896 24.592 45.048 26.32 43.352C28.048 41.656 28.912 39.256 28.912 36.152C28.912 33.048 28.048 30.632 26.32 28.904C24.592 27.176 22.176 26.312 19.072 26.312H15.184V45.896H19.072Z" fill="#366875"/>
<path d="M67.099 39.176C67.099 39.944 67.051 40.744 66.955 41.576H48.379C48.507 43.24 49.035 44.52 49.963 45.416C50.923 46.28 52.091 46.712 53.467 46.712C55.515 46.712 56.939 45.848 57.739 44.12H66.475C66.027 45.88 65.211 47.464 64.027 48.872C62.875 50.28 61.419 51.384 59.659 52.184C57.899 52.984 55.931 53.384 53.755 53.384C51.131 53.384 48.795 52.824 46.747 51.704C44.699 50.584 43.099 48.984 41.947 46.904C40.795 44.824 40.219 42.392 40.219 39.608C40.219 36.824 40.779 34.392 41.899 32.312C43.051 30.232 44.651 28.632 46.699 27.512C48.747 26.392 51.099 25.832 53.755 25.832C56.347 25.832 58.651 26.376 60.667 27.464C62.683 28.552 64.251 30.104 65.371 32.12C66.523 34.136 67.099 36.488 67.099 39.176ZM58.699 37.016C58.699 35.608 58.219 34.488 57.259 33.656C56.299 32.824 55.099 32.408 53.659 32.408C52.283 32.408 51.115 32.808 50.155 33.608C49.227 34.408 48.651 35.544 48.427 37.016H58.699ZM59.275 19.352L47.707 24.2V18.536L59.275 12.968V19.352ZM83.4771 45.32L89.2851 26.216H98.0211L88.5171 53H78.3891L68.8851 26.216H77.6691L83.4771 45.32Z" fill="#073946"/>
<path d="M126.724 39.176C126.724 39.944 126.676 40.744 126.58 41.576H108.004C108.132 43.24 108.66 44.52 109.588 45.416C110.548 46.28 111.716 46.712 113.092 46.712C115.14 46.712 116.564 45.848 117.364 44.12H126.1C125.652 45.88 124.836 47.464 123.652 48.872C122.5 50.28 121.044 51.384 119.284 52.184C117.524 52.984 115.556 53.384 113.38 53.384C110.756 53.384 108.42 52.824 106.372 51.704C104.324 50.584 102.724 48.984 101.572 46.904C100.42 44.824 99.844 42.392 99.844 39.608C99.844 36.824 100.404 34.392 101.524 32.312C102.676 30.232 104.276 28.632 106.324 27.512C108.372 26.392 110.724 25.832 113.38 25.832C115.972 25.832 118.276 26.376 120.292 27.464C122.308 28.552 123.876 30.104 124.996 32.12C126.148 34.136 126.724 36.488 126.724 39.176ZM118.324 37.016C118.324 35.608 117.844 34.488 116.884 33.656C115.924 32.824 114.724 32.408 113.284 32.408C111.908 32.408 110.74 32.808 109.78 33.608C108.852 34.408 108.276 35.544 108.052 37.016H118.324ZM266.177 39.176C266.177 39.944 266.129 40.744 266.033 41.576H247.457C247.585 43.24 248.113 44.52 249.041 45.416C250.001 46.28 251.169 46.712 252.545 46.712C254.593 46.712 256.017 45.848 256.817 44.12H265.553C265.105 45.88 264.289 47.464 263.105 48.872C261.953 50.28 260.497 51.384 258.737 52.184C256.977 52.984 255.009 53.384 252.833 53.384C250.209 53.384 247.873 52.824 245.825 51.704C243.777 50.584 242.177 48.984 241.025 46.904C239.873 44.824 239.297 42.392 239.297 39.608C239.297 36.824 239.857 34.392 240.977 32.312C242.129 30.232 243.729 28.632 245.777 27.512C247.825 26.392 250.177 25.832 252.833 25.832C255.425 25.832 257.729 26.376 259.745 27.464C261.761 28.552 263.329 30.104 264.449 32.12C265.601 34.136 266.177 36.488 266.177 39.176ZM257.777 37.016C257.777 35.608 257.297 34.488 256.337 33.656C255.377 32.824 254.177 32.408 252.737 32.408C251.361 32.408 250.193 32.808 249.233 33.608C248.305 34.408 247.729 35.544 247.505 37.016H257.777ZM346.568 39.176C346.568 39.944 346.52 40.744 346.424 41.576H327.848C327.976 43.24 328.504 44.52 329.432 45.416C330.392 46.28 331.56 46.712 332.936 46.712C334.984 46.712 336.408 45.848 337.208 44.12H345.944C345.496 45.88 344.68 47.464 343.496 48.872C342.344 50.28 340.888 51.384 339.128 52.184C337.368 52.984 335.4 53.384 333.224 53.384C330.6 53.384 328.264 52.824 326.216 51.704C324.168 50.584 322.568 48.984 321.416 46.904C320.264 44.824 319.688 42.392 319.688 39.608C319.688 36.824 320.248 34.392 321.368 32.312C322.52 30.232 324.12 28.632 326.168 27.512C328.216 26.392 330.568 25.832 333.224 25.832C335.816 25.832 338.12 26.376 340.136 27.464C342.152 28.552 343.72 30.104 344.84 32.12C345.992 34.136 346.568 36.488 346.568 39.176ZM338.168 37.016C338.168 35.608 337.688 34.488 336.728 33.656C335.768 32.824 334.568 32.408 333.128 32.408C331.752 32.408 330.584 32.808 329.624 33.608C328.696 34.408 328.12 35.544 327.896 37.016H338.168Z" fill="#073946"/>
<path d="M139.262 17.48V53H131.054V17.48H139.262ZM157.402 53.384C154.778 53.384 152.41 52.824 150.298 51.704C148.218 50.584 146.57 48.984 145.354 46.904C144.17 44.824 143.578 42.392 143.578 39.608C143.578 36.856 144.186 34.44 145.402 32.36C146.618 30.248 148.282 28.632 150.394 27.512C152.506 26.392 154.874 25.832 157.498 25.832C160.122 25.832 162.49 26.392 164.602 27.512C166.714 28.632 168.378 30.248 169.594 32.36C170.81 34.44 171.418 36.856 171.418 39.608C171.418 42.36 170.794 44.792 169.546 46.904C168.33 48.984 166.65 50.584 164.506 51.704C162.394 52.824 160.026 53.384 157.402 53.384ZM157.402 46.28C158.97 46.28 160.298 45.704 161.386 44.552C162.506 43.4 163.066 41.752 163.066 39.608C163.066 37.464 162.522 35.816 161.434 34.664C160.378 33.512 159.066 32.936 157.498 32.936C155.898 32.936 154.57 33.512 153.514 34.664C152.458 35.784 151.93 37.432 151.93 39.608C151.93 41.752 152.442 43.4 153.466 44.552C154.522 45.704 155.834 46.28 157.402 46.28ZM304.683 25.928C308.011 25.928 310.651 26.936 312.603 28.952C314.587 30.968 315.579 33.768 315.579 37.352V53H307.419V38.456C307.419 36.728 306.955 35.4 306.027 34.472C305.131 33.512 303.883 33.032 302.283 33.032C300.683 33.032 299.419 33.512 298.491 34.472C297.595 35.4 297.147 36.728 297.147 38.456V53H288.987V38.456C288.987 36.728 288.523 35.4 287.595 34.472C286.699 33.512 285.451 33.032 283.851 33.032C282.251 33.032 280.987 33.512 280.059 34.472C279.163 35.4 278.715 36.728 278.715 38.456V53H270.507V26.216H278.715V29.576C279.547 28.456 280.635 27.576 281.979 26.936C283.323 26.264 284.843 25.928 286.539 25.928C288.555 25.928 290.347 26.36 291.915 27.224C293.515 28.088 294.763 29.32 295.659 30.92C296.587 29.448 297.851 28.248 299.451 27.32C301.051 26.392 302.795 25.928 304.683 25.928Z" fill="#85DEDE"/>
<path d="M183.981 30.008C184.781 28.76 185.885 27.752 187.293 26.984C188.701 26.216 190.349 25.832 192.237 25.832C194.445 25.832 196.445 26.392 198.237 27.512C200.029 28.632 201.437 30.232 202.461 32.312C203.517 34.392 204.045 36.808 204.045 39.56C204.045 42.312 203.517 44.744 202.461 46.856C201.437 48.936 200.029 50.552 198.237 51.704C196.445 52.824 194.445 53.384 192.237 53.384C190.381 53.384 188.733 53 187.293 52.232C185.885 51.464 184.781 50.472 183.981 49.256V65.768H175.773V26.216H183.981V30.008ZM195.693 39.56C195.693 37.512 195.117 35.912 193.965 34.76C192.845 33.576 191.453 32.984 189.789 32.984C188.157 32.984 186.765 33.576 185.613 34.76C184.493 35.944 183.933 37.56 183.933 39.608C183.933 41.656 184.493 43.272 185.613 44.456C186.765 45.64 188.157 46.232 189.789 46.232C191.421 46.232 192.813 45.64 193.965 44.456C195.117 43.24 195.693 41.608 195.693 39.56ZM216.559 30.008C217.359 28.76 218.463 27.752 219.871 26.984C221.279 26.216 222.927 25.832 224.815 25.832C227.023 25.832 229.023 26.392 230.815 27.512C232.607 28.632 234.015 30.232 235.039 32.312C236.095 34.392 236.623 36.808 236.623 39.56C236.623 42.312 236.095 44.744 235.039 46.856C234.015 48.936 232.607 50.552 230.815 51.704C229.023 52.824 227.023 53.384 224.815 53.384C222.959 53.384 221.311 53 219.871 52.232C218.463 51.464 217.359 50.472 216.559 49.256V65.768H208.351V26.216H216.559V30.008ZM228.271 39.56C228.271 37.512 227.695 35.912 226.543 34.76C225.423 33.576 224.031 32.984 222.367 32.984C220.735 32.984 219.343 33.576 218.191 34.76C217.071 35.944 216.511 37.56 216.511 39.608C216.511 41.656 217.071 43.272 218.191 44.456C219.343 45.64 220.735 46.232 222.367 46.232C223.999 46.232 225.391 45.64 226.543 44.456C227.695 43.24 228.271 41.608 228.271 39.56Z" fill="#67AFC3"/>
<path d="M367.218 25.928C370.354 25.928 372.85 26.952 374.706 29C376.594 31.016 377.538 33.8 377.538 37.352V53H369.378V38.456C369.378 36.664 368.914 35.272 367.986 34.28C367.058 33.288 365.81 32.792 364.242 32.792C362.674 32.792 361.426 33.288 360.498 34.28C359.57 35.272 359.106 36.664 359.106 38.456V53H350.898V26.216H359.106V29.768C359.938 28.584 361.058 27.656 362.466 26.984C363.874 26.28 365.458 25.928 367.218 25.928ZM398.17 46.04V53H393.994C391.018 53 388.698 52.28 387.034 50.84C385.37 49.368 384.538 46.984 384.538 43.688V33.032H381.274V26.216H384.538V19.688H392.746V26.216H398.122V33.032H392.746V43.784C392.746 44.584 392.938 45.16 393.322 45.512C393.706 45.864 394.346 46.04 395.242 46.04H398.17Z" fill="#105B70"/>
</g>
<path d="M19.6 19.304C23.152 19.304 26.256 20.008 28.912 21.416C31.568 22.824 33.616 24.808 35.056 27.368C36.528 29.896 37.264 32.824 37.264 36.152C37.264 39.448 36.528 42.376 35.056 44.936C33.616 47.496 31.552 49.48 28.864 50.888C26.208 52.296 23.12 53 19.6 53H6.976V19.304H19.6ZM19.072 45.896C22.176 45.896 24.592 45.048 26.32 43.352C28.048 41.656 28.912 39.256 28.912 36.152C28.912 33.048 28.048 30.632 26.32 28.904C24.592 27.176 22.176 26.312 19.072 26.312H15.184V45.896H19.072Z" fill="#366875"/>
<path d="M67.099 39.176C67.099 39.944 67.051 40.744 66.955 41.576H48.379C48.507 43.24 49.035 44.52 49.963 45.416C50.923 46.28 52.091 46.712 53.467 46.712C55.515 46.712 56.939 45.848 57.739 44.12H66.475C66.027 45.88 65.211 47.464 64.027 48.872C62.875 50.28 61.419 51.384 59.659 52.184C57.899 52.984 55.931 53.384 53.755 53.384C51.131 53.384 48.795 52.824 46.747 51.704C44.699 50.584 43.099 48.984 41.947 46.904C40.795 44.824 40.219 42.392 40.219 39.608C40.219 36.824 40.779 34.392 41.899 32.312C43.051 30.232 44.651 28.632 46.699 27.512C48.747 26.392 51.099 25.832 53.755 25.832C56.347 25.832 58.651 26.376 60.667 27.464C62.683 28.552 64.251 30.104 65.371 32.12C66.523 34.136 67.099 36.488 67.099 39.176ZM58.699 37.016C58.699 35.608 58.219 34.488 57.259 33.656C56.299 32.824 55.099 32.408 53.659 32.408C52.283 32.408 51.115 32.808 50.155 33.608C49.227 34.408 48.651 35.544 48.427 37.016H58.699ZM59.275 19.352L47.707 24.2V18.536L59.275 12.968V19.352ZM83.4771 45.32L89.2851 26.216H98.0211L88.5171 53H78.3891L68.8851 26.216H77.6691L83.4771 45.32Z" fill="#073946"/>
<path d="M126.724 39.176C126.724 39.944 126.676 40.744 126.58 41.576H108.004C108.132 43.24 108.66 44.52 109.588 45.416C110.548 46.28 111.716 46.712 113.092 46.712C115.14 46.712 116.564 45.848 117.364 44.12H126.1C125.652 45.88 124.836 47.464 123.652 48.872C122.5 50.28 121.044 51.384 119.284 52.184C117.524 52.984 115.556 53.384 113.38 53.384C110.756 53.384 108.42 52.824 106.372 51.704C104.324 50.584 102.724 48.984 101.572 46.904C100.42 44.824 99.844 42.392 99.844 39.608C99.844 36.824 100.404 34.392 101.524 32.312C102.676 30.232 104.276 28.632 106.324 27.512C108.372 26.392 110.724 25.832 113.38 25.832C115.972 25.832 118.276 26.376 120.292 27.464C122.308 28.552 123.876 30.104 124.996 32.12C126.148 34.136 126.724 36.488 126.724 39.176ZM118.324 37.016C118.324 35.608 117.844 34.488 116.884 33.656C115.924 32.824 114.724 32.408 113.284 32.408C111.908 32.408 110.74 32.808 109.78 33.608C108.852 34.408 108.276 35.544 108.052 37.016H118.324ZM266.177 39.176C266.177 39.944 266.129 40.744 266.033 41.576H247.457C247.585 43.24 248.113 44.52 249.041 45.416C250.001 46.28 251.169 46.712 252.545 46.712C254.593 46.712 256.017 45.848 256.817 44.12H265.553C265.105 45.88 264.289 47.464 263.105 48.872C261.953 50.28 260.497 51.384 258.737 52.184C256.977 52.984 255.009 53.384 252.833 53.384C250.209 53.384 247.873 52.824 245.825 51.704C243.777 50.584 242.177 48.984 241.025 46.904C239.873 44.824 239.297 42.392 239.297 39.608C239.297 36.824 239.857 34.392 240.977 32.312C242.129 30.232 243.729 28.632 245.777 27.512C247.825 26.392 250.177 25.832 252.833 25.832C255.425 25.832 257.729 26.376 259.745 27.464C261.761 28.552 263.329 30.104 264.449 32.12C265.601 34.136 266.177 36.488 266.177 39.176ZM257.777 37.016C257.777 35.608 257.297 34.488 256.337 33.656C255.377 32.824 254.177 32.408 252.737 32.408C251.361 32.408 250.193 32.808 249.233 33.608C248.305 34.408 247.729 35.544 247.505 37.016H257.777ZM346.568 39.176C346.568 39.944 346.52 40.744 346.424 41.576H327.848C327.976 43.24 328.504 44.52 329.432 45.416C330.392 46.28 331.56 46.712 332.936 46.712C334.984 46.712 336.408 45.848 337.208 44.12H345.944C345.496 45.88 344.68 47.464 343.496 48.872C342.344 50.28 340.888 51.384 339.128 52.184C337.368 52.984 335.4 53.384 333.224 53.384C330.6 53.384 328.264 52.824 326.216 51.704C324.168 50.584 322.568 48.984 321.416 46.904C320.264 44.824 319.688 42.392 319.688 39.608C319.688 36.824 320.248 34.392 321.368 32.312C322.52 30.232 324.12 28.632 326.168 27.512C328.216 26.392 330.568 25.832 333.224 25.832C335.816 25.832 338.12 26.376 340.136 27.464C342.152 28.552 343.72 30.104 344.84 32.12C345.992 34.136 346.568 36.488 346.568 39.176ZM338.168 37.016C338.168 35.608 337.688 34.488 336.728 33.656C335.768 32.824 334.568 32.408 333.128 32.408C331.752 32.408 330.584 32.808 329.624 33.608C328.696 34.408 328.12 35.544 327.896 37.016H338.168Z" fill="#073946"/>
<path d="M139.262 17.48V53H131.054V17.48H139.262ZM157.402 53.384C154.778 53.384 152.41 52.824 150.298 51.704C148.218 50.584 146.57 48.984 145.354 46.904C144.17 44.824 143.578 42.392 143.578 39.608C143.578 36.856 144.186 34.44 145.402 32.36C146.618 30.248 148.282 28.632 150.394 27.512C152.506 26.392 154.874 25.832 157.498 25.832C160.122 25.832 162.49 26.392 164.602 27.512C166.714 28.632 168.378 30.248 169.594 32.36C170.81 34.44 171.418 36.856 171.418 39.608C171.418 42.36 170.794 44.792 169.546 46.904C168.33 48.984 166.65 50.584 164.506 51.704C162.394 52.824 160.026 53.384 157.402 53.384ZM157.402 46.28C158.97 46.28 160.298 45.704 161.386 44.552C162.506 43.4 163.066 41.752 163.066 39.608C163.066 37.464 162.522 35.816 161.434 34.664C160.378 33.512 159.066 32.936 157.498 32.936C155.898 32.936 154.57 33.512 153.514 34.664C152.458 35.784 151.93 37.432 151.93 39.608C151.93 41.752 152.442 43.4 153.466 44.552C154.522 45.704 155.834 46.28 157.402 46.28ZM304.683 25.928C308.011 25.928 310.651 26.936 312.603 28.952C314.587 30.968 315.579 33.768 315.579 37.352V53H307.419V38.456C307.419 36.728 306.955 35.4 306.027 34.472C305.131 33.512 303.883 33.032 302.283 33.032C300.683 33.032 299.419 33.512 298.491 34.472C297.595 35.4 297.147 36.728 297.147 38.456V53H288.987V38.456C288.987 36.728 288.523 35.4 287.595 34.472C286.699 33.512 285.451 33.032 283.851 33.032C282.251 33.032 280.987 33.512 280.059 34.472C279.163 35.4 278.715 36.728 278.715 38.456V53H270.507V26.216H278.715V29.576C279.547 28.456 280.635 27.576 281.979 26.936C283.323 26.264 284.843 25.928 286.539 25.928C288.555 25.928 290.347 26.36 291.915 27.224C293.515 28.088 294.763 29.32 295.659 30.92C296.587 29.448 297.851 28.248 299.451 27.32C301.051 26.392 302.795 25.928 304.683 25.928Z" fill="#85DEDE"/>
<path d="M183.981 30.008C184.781 28.76 185.885 27.752 187.293 26.984C188.701 26.216 190.349 25.832 192.237 25.832C194.445 25.832 196.445 26.392 198.237 27.512C200.029 28.632 201.437 30.232 202.461 32.312C203.517 34.392 204.045 36.808 204.045 39.56C204.045 42.312 203.517 44.744 202.461 46.856C201.437 48.936 200.029 50.552 198.237 51.704C196.445 52.824 194.445 53.384 192.237 53.384C190.381 53.384 188.733 53 187.293 52.232C185.885 51.464 184.781 50.472 183.981 49.256V65.768H175.773V26.216H183.981V30.008ZM195.693 39.56C195.693 37.512 195.117 35.912 193.965 34.76C192.845 33.576 191.453 32.984 189.789 32.984C188.157 32.984 186.765 33.576 185.613 34.76C184.493 35.944 183.933 37.56 183.933 39.608C183.933 41.656 184.493 43.272 185.613 44.456C186.765 45.64 188.157 46.232 189.789 46.232C191.421 46.232 192.813 45.64 193.965 44.456C195.117 43.24 195.693 41.608 195.693 39.56ZM216.559 30.008C217.359 28.76 218.463 27.752 219.871 26.984C221.279 26.216 222.927 25.832 224.815 25.832C227.023 25.832 229.023 26.392 230.815 27.512C232.607 28.632 234.015 30.232 235.039 32.312C236.095 34.392 236.623 36.808 236.623 39.56C236.623 42.312 236.095 44.744 235.039 46.856C234.015 48.936 232.607 50.552 230.815 51.704C229.023 52.824 227.023 53.384 224.815 53.384C222.959 53.384 221.311 53 219.871 52.232C218.463 51.464 217.359 50.472 216.559 49.256V65.768H208.351V26.216H216.559V30.008ZM228.271 39.56C228.271 37.512 227.695 35.912 226.543 34.76C225.423 33.576 224.031 32.984 222.367 32.984C220.735 32.984 219.343 33.576 218.191 34.76C217.071 35.944 216.511 37.56 216.511 39.608C216.511 41.656 217.071 43.272 218.191 44.456C219.343 45.64 220.735 46.232 222.367 46.232C223.999 46.232 225.391 45.64 226.543 44.456C227.695 43.24 228.271 41.608 228.271 39.56Z" fill="#67AFC3"/>
<path d="M367.218 25.928C370.354 25.928 372.85 26.952 374.706 29C376.594 31.016 377.538 33.8 377.538 37.352V53H369.378V38.456C369.378 36.664 368.914 35.272 367.986 34.28C367.058 33.288 365.81 32.792 364.242 32.792C362.674 32.792 361.426 33.288 360.498 34.28C359.57 35.272 359.106 36.664 359.106 38.456V53H350.898V26.216H359.106V29.768C359.938 28.584 361.058 27.656 362.466 26.984C363.874 26.28 365.458 25.928 367.218 25.928ZM398.17 46.04V53H393.994C391.018 53 388.698 52.28 387.034 50.84C385.37 49.368 384.538 46.984 384.538 43.688V33.032H381.274V26.216H384.538V19.688H392.746V26.216H398.122V33.032H392.746V43.784C392.746 44.584 392.938 45.16 393.322 45.512C393.706 45.864 394.346 46.04 395.242 46.04H398.17Z" fill="#105B70"/>
<defs>
<filter id="filter0_f_15_3108" x="0.976074" y="6.96802" width="403.193" height="64.7999" filterUnits="userSpaceOnUse" color-interpolation-filters="sRGB">
<feFlood flood-opacity="0" result="BackgroundImageFix"/>
<feBlend mode="normal" in="SourceGraphic" in2="BackgroundImageFix" result="shape"/>
<feGaussianBlur stdDeviation="3" result="effect1_foregroundBlur_15_3108"/>
</filter>
</defs>
</svg>
