<svg width="472" height="73" viewBox="0 0 472 73" fill="none" xmlns="http://www.w3.org/2000/svg">
<g filter="url(#filter0_f_15_3243)">
<path d="M6.584 36.104C6.584 32.776 7.304 29.816 8.744 27.224C10.184 24.6 12.184 22.568 14.744 21.128C17.336 19.656 20.264 18.92 23.528 18.92C27.528 18.92 30.952 19.976 33.8 22.088C36.648 24.2 38.552 27.08 39.512 30.728H30.488C29.816 29.32 28.856 28.248 27.608 27.512C26.392 26.776 25 26.408 23.432 26.408C20.904 26.408 18.856 27.288 17.288 29.048C15.72 30.808 14.936 33.16 14.936 36.104C14.936 39.048 15.72 41.4 17.288 43.16C18.856 44.92 20.904 45.8 23.432 45.8C25 45.8 26.392 45.432 27.608 44.696C28.856 43.96 29.816 42.888 30.488 41.48H39.512C38.552 45.128 36.648 48.008 33.8 50.12C30.952 52.2 27.528 53.24 23.528 53.24C20.264 53.24 17.336 52.52 14.744 51.08C12.184 49.608 10.184 47.576 8.744 44.984C7.304 42.392 6.584 39.432 6.584 36.104ZM56.7305 53.384C54.1065 53.384 51.7385 52.824 49.6265 51.704C47.5465 50.584 45.8985 48.984 44.6825 46.904C43.4985 44.824 42.9065 42.392 42.9065 39.608C42.9065 36.856 43.5145 34.44 44.7305 32.36C45.9465 30.248 47.6105 28.632 49.7225 27.512C51.8345 26.392 54.2025 25.832 56.8265 25.832C59.4505 25.832 61.8185 26.392 63.9305 27.512C66.0425 28.632 67.7065 30.248 68.9225 32.36C70.1385 34.44 70.7465 36.856 70.7465 39.608C70.7465 42.36 70.1225 44.792 68.8745 46.904C67.6585 48.984 65.9785 50.584 63.8345 51.704C61.7225 52.824 59.3545 53.384 56.7305 53.384ZM56.7305 46.28C58.2985 46.28 59.6265 45.704 60.7145 44.552C61.8345 43.4 62.3945 41.752 62.3945 39.608C62.3945 37.464 61.8505 35.816 60.7625 34.664C59.7065 33.512 58.3945 32.936 56.8265 32.936C55.2265 32.936 53.8985 33.512 52.8425 34.664C51.7865 35.784 51.2585 37.432 51.2585 39.608C51.2585 41.752 51.7705 43.4 52.7945 44.552C53.8505 45.704 55.1625 46.28 56.7305 46.28ZM199.562 25.928C202.698 25.928 205.194 26.952 207.05 29C208.938 31.016 209.882 33.8 209.882 37.352V53H201.722V38.456C201.722 36.664 201.258 35.272 200.33 34.28C199.402 33.288 198.154 32.792 196.586 32.792C195.018 32.792 193.77 33.288 192.842 34.28C191.914 35.272 191.45 36.664 191.45 38.456V53H183.242V26.216H191.45V29.768C192.282 28.584 193.402 27.656 194.81 26.984C196.218 26.28 197.802 25.928 199.562 25.928ZM225.761 25.832C227.649 25.832 229.297 26.216 230.705 26.984C232.145 27.752 233.249 28.76 234.017 30.008V26.216H242.225V52.952C242.225 55.416 241.729 57.64 240.737 59.624C239.777 61.64 238.289 63.24 236.273 64.424C234.289 65.608 231.809 66.2 228.833 66.2C224.865 66.2 221.649 65.256 219.185 63.368C216.721 61.512 215.313 58.984 214.961 55.784H223.073C223.329 56.808 223.937 57.608 224.897 58.184C225.857 58.792 227.041 59.096 228.449 59.096C230.145 59.096 231.489 58.6 232.481 57.608C233.505 56.648 234.017 55.096 234.017 52.952V49.16C233.217 50.408 232.113 51.432 230.705 52.232C229.297 53 227.649 53.384 225.761 53.384C223.553 53.384 221.553 52.824 219.761 51.704C217.969 50.552 216.545 48.936 215.489 46.856C214.465 44.744 213.953 42.312 213.953 39.56C213.953 36.808 214.465 34.392 215.489 32.312C216.545 30.232 217.969 28.632 219.761 27.512C221.553 26.392 223.553 25.832 225.761 25.832ZM234.017 39.608C234.017 37.56 233.441 35.944 232.289 34.76C231.169 33.576 229.793 32.984 228.161 32.984C226.529 32.984 225.137 33.576 223.985 34.76C222.865 35.912 222.305 37.512 222.305 39.56C222.305 41.608 222.865 43.24 223.985 44.456C225.137 45.64 226.529 46.232 228.161 46.232C229.793 46.232 231.169 45.64 232.289 44.456C233.441 43.272 234.017 41.656 234.017 39.608ZM318.996 53.336C316.532 53.336 314.324 52.936 312.372 52.136C310.42 51.336 308.852 50.152 307.668 48.584C306.516 47.016 305.908 45.128 305.844 42.92H314.58C314.708 44.168 315.14 45.128 315.876 45.8C316.612 46.44 317.572 46.76 318.756 46.76C319.972 46.76 320.932 46.488 321.636 45.944C322.34 45.368 322.692 44.584 322.692 43.592C322.692 42.76 322.404 42.072 321.828 41.528C321.284 40.984 320.596 40.536 319.764 40.184C318.964 39.832 317.812 39.432 316.308 38.984C314.132 38.312 312.356 37.64 310.98 36.968C309.604 36.296 308.42 35.304 307.428 33.992C306.436 32.68 305.94 30.968 305.94 28.856C305.94 25.72 307.076 23.272 309.348 21.512C311.62 19.72 314.58 18.824 318.228 18.824C321.94 18.824 324.932 19.72 327.204 21.512C329.476 23.272 330.692 25.736 330.852 28.904H321.972C321.908 27.816 321.508 26.968 320.772 26.36C320.036 25.72 319.092 25.4 317.94 25.4C316.948 25.4 316.148 25.672 315.54 26.216C314.932 26.728 314.628 27.48 314.628 28.472C314.628 29.56 315.14 30.408 316.164 31.016C317.188 31.624 318.788 32.28 320.964 32.984C323.14 33.72 324.9 34.424 326.244 35.096C327.62 35.768 328.804 36.744 329.796 38.024C330.788 39.304 331.284 40.952 331.284 42.968C331.284 44.888 330.788 46.632 329.796 48.2C328.836 49.768 327.428 51.016 325.572 51.944C323.716 52.872 321.524 53.336 318.996 53.336ZM362.783 26.216V53H354.575V49.352C353.743 50.536 352.607 51.496 351.167 52.232C349.759 52.936 348.191 53.288 346.463 53.288C344.415 53.288 342.607 52.84 341.039 51.944C339.471 51.016 338.255 49.688 337.391 47.96C336.527 46.232 336.095 44.2 336.095 41.864V26.216H344.255V40.76C344.255 42.552 344.719 43.944 345.647 44.936C346.575 45.928 347.823 46.424 349.391 46.424C350.991 46.424 352.255 45.928 353.183 44.936C354.111 43.944 354.575 42.552 354.575 40.76V26.216H362.783ZM372.807 23.432C371.367 23.432 370.183 23.016 369.255 22.184C368.359 21.32 367.911 20.264 367.911 19.016C367.911 17.736 368.359 16.68 369.255 15.848C370.183 14.984 371.367 14.552 372.807 14.552C374.215 14.552 375.367 14.984 376.263 15.848C377.191 16.68 377.655 17.736 377.655 19.016C377.655 20.264 377.191 21.32 376.263 22.184C375.367 23.016 374.215 23.432 372.807 23.432ZM376.887 26.216V53H368.679V26.216H376.887Z" fill="#366875"/>
<path d="M73.469 39.56C73.469 36.808 73.981 34.392 75.005 32.312C76.061 30.232 77.485 28.632 79.277 27.512C81.069 26.392 83.069 25.832 85.277 25.832C87.165 25.832 88.813 26.216 90.221 26.984C91.661 27.752 92.765 28.76 93.533 30.008V26.216H101.741V53H93.533V49.208C92.733 50.456 91.613 51.464 90.173 52.232C88.765 53 87.117 53.384 85.229 53.384C83.053 53.384 81.069 52.824 79.277 51.704C77.485 50.552 76.061 48.936 75.005 46.856C73.981 44.744 73.469 42.312 73.469 39.56ZM93.533 39.608C93.533 37.56 92.957 35.944 91.805 34.76C90.685 33.576 89.309 32.984 87.677 32.984C86.045 32.984 84.653 33.576 83.501 34.76C82.381 35.912 81.821 37.512 81.821 39.56C81.821 41.608 82.381 43.24 83.501 44.456C84.653 45.64 86.045 46.232 87.677 46.232C89.309 46.232 90.685 45.64 91.805 44.456C92.957 43.272 93.533 41.656 93.533 39.608ZM106.047 39.608C106.047 36.824 106.607 34.392 107.727 32.312C108.879 30.232 110.463 28.632 112.479 27.512C114.527 26.392 116.863 25.832 119.487 25.832C122.847 25.832 125.647 26.712 127.887 28.472C130.159 30.232 131.647 32.712 132.351 35.912H123.615C122.879 33.864 121.455 32.84 119.343 32.84C117.839 32.84 116.639 33.432 115.743 34.616C114.847 35.768 114.399 37.432 114.399 39.608C114.399 41.784 114.847 43.464 115.743 44.648C116.639 45.8 117.839 46.376 119.343 46.376C121.455 46.376 122.879 45.352 123.615 43.304H132.351C131.647 46.44 130.159 48.904 127.887 50.696C125.615 52.488 122.815 53.384 119.487 53.384C116.863 53.384 114.527 52.824 112.479 51.704C110.463 50.584 108.879 48.984 107.727 46.904C106.607 44.824 106.047 42.392 106.047 39.608ZM153.206 25.928C156.278 25.928 158.742 26.952 160.598 29C162.454 31.016 163.382 33.8 163.382 37.352V53H155.222V38.456C155.222 36.664 154.758 35.272 153.83 34.28C152.902 33.288 151.654 32.792 150.086 32.792C148.518 32.792 147.27 33.288 146.342 34.28C145.414 35.272 144.95 36.664 144.95 38.456V53H136.742V17.48H144.95V29.816C145.782 28.632 146.918 27.688 148.358 26.984C149.798 26.28 151.414 25.928 153.206 25.928ZM173.213 23.432C171.773 23.432 170.589 23.016 169.661 22.184C168.765 21.32 168.317 20.264 168.317 19.016C168.317 17.736 168.765 16.68 169.661 15.848C170.589 14.984 171.773 14.552 173.213 14.552C174.621 14.552 175.773 14.984 176.669 15.848C177.597 16.68 178.061 17.736 178.061 19.016C178.061 20.264 177.597 21.32 176.669 22.184C175.773 23.016 174.621 23.432 173.213 23.432ZM177.293 26.216V53H169.085V26.216H177.293Z" fill="#67AFC3"/>
<path d="M284.111 53L280.991 49.976C277.887 52.344 274.175 53.528 269.855 53.528C267.263 53.528 265.007 53.112 263.087 52.28C261.167 51.416 259.679 50.216 258.623 48.68C257.599 47.112 257.087 45.288 257.087 43.208C257.087 41.096 257.647 39.192 258.767 37.496C259.919 35.768 261.631 34.36 263.903 33.272C263.071 32.248 262.479 31.272 262.127 30.344C261.775 29.384 261.599 28.344 261.599 27.224C261.599 25.624 262.015 24.168 262.847 22.856C263.679 21.544 264.879 20.52 266.447 19.784C268.047 19.016 269.935 18.632 272.111 18.632C274.319 18.632 276.191 19.032 277.727 19.832C279.263 20.632 280.415 21.704 281.183 23.048C281.951 24.392 282.303 25.864 282.239 27.464H274.511C274.543 26.6 274.319 25.944 273.839 25.496C273.391 25.016 272.783 24.776 272.015 24.776C271.247 24.776 270.607 25 270.095 25.448C269.583 25.896 269.327 26.472 269.327 27.176C269.327 27.848 269.535 28.552 269.951 29.288C270.399 30.024 271.087 30.872 272.015 31.832L280.223 39.848C280.287 39.688 280.367 39.496 280.463 39.272C280.591 39.048 280.719 38.792 280.847 38.504L282.623 35.48H290.831L288.527 39.656C287.663 41.544 286.671 43.336 285.551 45.032L293.663 53H284.111ZM270.239 46.904C272.383 46.904 274.287 46.296 275.951 45.08L268.463 37.832C266.159 39.016 265.007 40.616 265.007 42.632C265.007 43.848 265.471 44.872 266.399 45.704C267.359 46.504 268.639 46.904 270.239 46.904Z" fill="#F1A09B"/>
<path d="M394.883 45.32L400.691 26.216H409.427L399.923 53H389.795L380.291 26.216H389.075L394.883 45.32ZM417.01 23.432C415.57 23.432 414.386 23.016 413.458 22.184C412.562 21.32 412.114 20.264 412.114 19.016C412.114 17.736 412.562 16.68 413.458 15.848C414.386 14.984 415.57 14.552 417.01 14.552C418.418 14.552 419.57 14.984 420.466 15.848C421.394 16.68 421.858 17.736 421.858 19.016C421.858 20.264 421.394 21.32 420.466 22.184C419.57 23.016 418.418 23.432 417.01 23.432ZM421.09 26.216V53H412.882V26.216H421.09Z" fill="#1BAAD1"/>
</g>
<path d="M6.584 36.104C6.584 32.776 7.304 29.816 8.744 27.224C10.184 24.6 12.184 22.568 14.744 21.128C17.336 19.656 20.264 18.92 23.528 18.92C27.528 18.92 30.952 19.976 33.8 22.088C36.648 24.2 38.552 27.08 39.512 30.728H30.488C29.816 29.32 28.856 28.248 27.608 27.512C26.392 26.776 25 26.408 23.432 26.408C20.904 26.408 18.856 27.288 17.288 29.048C15.72 30.808 14.936 33.16 14.936 36.104C14.936 39.048 15.72 41.4 17.288 43.16C18.856 44.92 20.904 45.8 23.432 45.8C25 45.8 26.392 45.432 27.608 44.696C28.856 43.96 29.816 42.888 30.488 41.48H39.512C38.552 45.128 36.648 48.008 33.8 50.12C30.952 52.2 27.528 53.24 23.528 53.24C20.264 53.24 17.336 52.52 14.744 51.08C12.184 49.608 10.184 47.576 8.744 44.984C7.304 42.392 6.584 39.432 6.584 36.104ZM56.7305 53.384C54.1065 53.384 51.7385 52.824 49.6265 51.704C47.5465 50.584 45.8985 48.984 44.6825 46.904C43.4985 44.824 42.9065 42.392 42.9065 39.608C42.9065 36.856 43.5145 34.44 44.7305 32.36C45.9465 30.248 47.6105 28.632 49.7225 27.512C51.8345 26.392 54.2025 25.832 56.8265 25.832C59.4505 25.832 61.8185 26.392 63.9305 27.512C66.0425 28.632 67.7065 30.248 68.9225 32.36C70.1385 34.44 70.7465 36.856 70.7465 39.608C70.7465 42.36 70.1225 44.792 68.8745 46.904C67.6585 48.984 65.9785 50.584 63.8345 51.704C61.7225 52.824 59.3545 53.384 56.7305 53.384ZM56.7305 46.28C58.2985 46.28 59.6265 45.704 60.7145 44.552C61.8345 43.4 62.3945 41.752 62.3945 39.608C62.3945 37.464 61.8505 35.816 60.7625 34.664C59.7065 33.512 58.3945 32.936 56.8265 32.936C55.2265 32.936 53.8985 33.512 52.8425 34.664C51.7865 35.784 51.2585 37.432 51.2585 39.608C51.2585 41.752 51.7705 43.4 52.7945 44.552C53.8505 45.704 55.1625 46.28 56.7305 46.28ZM199.562 25.928C202.698 25.928 205.194 26.952 207.05 29C208.938 31.016 209.882 33.8 209.882 37.352V53H201.722V38.456C201.722 36.664 201.258 35.272 200.33 34.28C199.402 33.288 198.154 32.792 196.586 32.792C195.018 32.792 193.77 33.288 192.842 34.28C191.914 35.272 191.45 36.664 191.45 38.456V53H183.242V26.216H191.45V29.768C192.282 28.584 193.402 27.656 194.81 26.984C196.218 26.28 197.802 25.928 199.562 25.928ZM225.761 25.832C227.649 25.832 229.297 26.216 230.705 26.984C232.145 27.752 233.249 28.76 234.017 30.008V26.216H242.225V52.952C242.225 55.416 241.729 57.64 240.737 59.624C239.777 61.64 238.289 63.24 236.273 64.424C234.289 65.608 231.809 66.2 228.833 66.2C224.865 66.2 221.649 65.256 219.185 63.368C216.721 61.512 215.313 58.984 214.961 55.784H223.073C223.329 56.808 223.937 57.608 224.897 58.184C225.857 58.792 227.041 59.096 228.449 59.096C230.145 59.096 231.489 58.6 232.481 57.608C233.505 56.648 234.017 55.096 234.017 52.952V49.16C233.217 50.408 232.113 51.432 230.705 52.232C229.297 53 227.649 53.384 225.761 53.384C223.553 53.384 221.553 52.824 219.761 51.704C217.969 50.552 216.545 48.936 215.489 46.856C214.465 44.744 213.953 42.312 213.953 39.56C213.953 36.808 214.465 34.392 215.489 32.312C216.545 30.232 217.969 28.632 219.761 27.512C221.553 26.392 223.553 25.832 225.761 25.832ZM234.017 39.608C234.017 37.56 233.441 35.944 232.289 34.76C231.169 33.576 229.793 32.984 228.161 32.984C226.529 32.984 225.137 33.576 223.985 34.76C222.865 35.912 222.305 37.512 222.305 39.56C222.305 41.608 222.865 43.24 223.985 44.456C225.137 45.64 226.529 46.232 228.161 46.232C229.793 46.232 231.169 45.64 232.289 44.456C233.441 43.272 234.017 41.656 234.017 39.608ZM318.996 53.336C316.532 53.336 314.324 52.936 312.372 52.136C310.42 51.336 308.852 50.152 307.668 48.584C306.516 47.016 305.908 45.128 305.844 42.92H314.58C314.708 44.168 315.14 45.128 315.876 45.8C316.612 46.44 317.572 46.76 318.756 46.76C319.972 46.76 320.932 46.488 321.636 45.944C322.34 45.368 322.692 44.584 322.692 43.592C322.692 42.76 322.404 42.072 321.828 41.528C321.284 40.984 320.596 40.536 319.764 40.184C318.964 39.832 317.812 39.432 316.308 38.984C314.132 38.312 312.356 37.64 310.98 36.968C309.604 36.296 308.42 35.304 307.428 33.992C306.436 32.68 305.94 30.968 305.94 28.856C305.94 25.72 307.076 23.272 309.348 21.512C311.62 19.72 314.58 18.824 318.228 18.824C321.94 18.824 324.932 19.72 327.204 21.512C329.476 23.272 330.692 25.736 330.852 28.904H321.972C321.908 27.816 321.508 26.968 320.772 26.36C320.036 25.72 319.092 25.4 317.94 25.4C316.948 25.4 316.148 25.672 315.54 26.216C314.932 26.728 314.628 27.48 314.628 28.472C314.628 29.56 315.14 30.408 316.164 31.016C317.188 31.624 318.788 32.28 320.964 32.984C323.14 33.72 324.9 34.424 326.244 35.096C327.62 35.768 328.804 36.744 329.796 38.024C330.788 39.304 331.284 40.952 331.284 42.968C331.284 44.888 330.788 46.632 329.796 48.2C328.836 49.768 327.428 51.016 325.572 51.944C323.716 52.872 321.524 53.336 318.996 53.336ZM362.783 26.216V53H354.575V49.352C353.743 50.536 352.607 51.496 351.167 52.232C349.759 52.936 348.191 53.288 346.463 53.288C344.415 53.288 342.607 52.84 341.039 51.944C339.471 51.016 338.255 49.688 337.391 47.96C336.527 46.232 336.095 44.2 336.095 41.864V26.216H344.255V40.76C344.255 42.552 344.719 43.944 345.647 44.936C346.575 45.928 347.823 46.424 349.391 46.424C350.991 46.424 352.255 45.928 353.183 44.936C354.111 43.944 354.575 42.552 354.575 40.76V26.216H362.783ZM372.807 23.432C371.367 23.432 370.183 23.016 369.255 22.184C368.359 21.32 367.911 20.264 367.911 19.016C367.911 17.736 368.359 16.68 369.255 15.848C370.183 14.984 371.367 14.552 372.807 14.552C374.215 14.552 375.367 14.984 376.263 15.848C377.191 16.68 377.655 17.736 377.655 19.016C377.655 20.264 377.191 21.32 376.263 22.184C375.367 23.016 374.215 23.432 372.807 23.432ZM376.887 26.216V53H368.679V26.216H376.887Z" fill="#366875"/>
<path d="M73.469 39.56C73.469 36.808 73.981 34.392 75.005 32.312C76.061 30.232 77.485 28.632 79.277 27.512C81.069 26.392 83.069 25.832 85.277 25.832C87.165 25.832 88.813 26.216 90.221 26.984C91.661 27.752 92.765 28.76 93.533 30.008V26.216H101.741V53H93.533V49.208C92.733 50.456 91.613 51.464 90.173 52.232C88.765 53 87.117 53.384 85.229 53.384C83.053 53.384 81.069 52.824 79.277 51.704C77.485 50.552 76.061 48.936 75.005 46.856C73.981 44.744 73.469 42.312 73.469 39.56ZM93.533 39.608C93.533 37.56 92.957 35.944 91.805 34.76C90.685 33.576 89.309 32.984 87.677 32.984C86.045 32.984 84.653 33.576 83.501 34.76C82.381 35.912 81.821 37.512 81.821 39.56C81.821 41.608 82.381 43.24 83.501 44.456C84.653 45.64 86.045 46.232 87.677 46.232C89.309 46.232 90.685 45.64 91.805 44.456C92.957 43.272 93.533 41.656 93.533 39.608ZM106.047 39.608C106.047 36.824 106.607 34.392 107.727 32.312C108.879 30.232 110.463 28.632 112.479 27.512C114.527 26.392 116.863 25.832 119.487 25.832C122.847 25.832 125.647 26.712 127.887 28.472C130.159 30.232 131.647 32.712 132.351 35.912H123.615C122.879 33.864 121.455 32.84 119.343 32.84C117.839 32.84 116.639 33.432 115.743 34.616C114.847 35.768 114.399 37.432 114.399 39.608C114.399 41.784 114.847 43.464 115.743 44.648C116.639 45.8 117.839 46.376 119.343 46.376C121.455 46.376 122.879 45.352 123.615 43.304H132.351C131.647 46.44 130.159 48.904 127.887 50.696C125.615 52.488 122.815 53.384 119.487 53.384C116.863 53.384 114.527 52.824 112.479 51.704C110.463 50.584 108.879 48.984 107.727 46.904C106.607 44.824 106.047 42.392 106.047 39.608ZM153.206 25.928C156.278 25.928 158.742 26.952 160.598 29C162.454 31.016 163.382 33.8 163.382 37.352V53H155.222V38.456C155.222 36.664 154.758 35.272 153.83 34.28C152.902 33.288 151.654 32.792 150.086 32.792C148.518 32.792 147.27 33.288 146.342 34.28C145.414 35.272 144.95 36.664 144.95 38.456V53H136.742V17.48H144.95V29.816C145.782 28.632 146.918 27.688 148.358 26.984C149.798 26.28 151.414 25.928 153.206 25.928ZM173.213 23.432C171.773 23.432 170.589 23.016 169.661 22.184C168.765 21.32 168.317 20.264 168.317 19.016C168.317 17.736 168.765 16.68 169.661 15.848C170.589 14.984 171.773 14.552 173.213 14.552C174.621 14.552 175.773 14.984 176.669 15.848C177.597 16.68 178.061 17.736 178.061 19.016C178.061 20.264 177.597 21.32 176.669 22.184C175.773 23.016 174.621 23.432 173.213 23.432ZM177.293 26.216V53H169.085V26.216H177.293Z" fill="#67AFC3"/>
<path d="M284.111 53L280.991 49.976C277.887 52.344 274.175 53.528 269.855 53.528C267.263 53.528 265.007 53.112 263.087 52.28C261.167 51.416 259.679 50.216 258.623 48.68C257.599 47.112 257.087 45.288 257.087 43.208C257.087 41.096 257.647 39.192 258.767 37.496C259.919 35.768 261.631 34.36 263.903 33.272C263.071 32.248 262.479 31.272 262.127 30.344C261.775 29.384 261.599 28.344 261.599 27.224C261.599 25.624 262.015 24.168 262.847 22.856C263.679 21.544 264.879 20.52 266.447 19.784C268.047 19.016 269.935 18.632 272.111 18.632C274.319 18.632 276.191 19.032 277.727 19.832C279.263 20.632 280.415 21.704 281.183 23.048C281.951 24.392 282.303 25.864 282.239 27.464H274.511C274.543 26.6 274.319 25.944 273.839 25.496C273.391 25.016 272.783 24.776 272.015 24.776C271.247 24.776 270.607 25 270.095 25.448C269.583 25.896 269.327 26.472 269.327 27.176C269.327 27.848 269.535 28.552 269.951 29.288C270.399 30.024 271.087 30.872 272.015 31.832L280.223 39.848C280.287 39.688 280.367 39.496 280.463 39.272C280.591 39.048 280.719 38.792 280.847 38.504L282.623 35.48H290.831L288.527 39.656C287.663 41.544 286.671 43.336 285.551 45.032L293.663 53H284.111ZM270.239 46.904C272.383 46.904 274.287 46.296 275.951 45.08L268.463 37.832C266.159 39.016 265.007 40.616 265.007 42.632C265.007 43.848 265.471 44.872 266.399 45.704C267.359 46.504 268.639 46.904 270.239 46.904Z" fill="#F1A09B"/>
<path d="M394.883 45.32L400.691 26.216H409.427L399.923 53H389.795L380.291 26.216H389.075L394.883 45.32ZM417.01 23.432C415.57 23.432 414.386 23.016 413.458 22.184C412.562 21.32 412.114 20.264 412.114 19.016C412.114 17.736 412.562 16.68 413.458 15.848C414.386 14.984 415.57 14.552 417.01 14.552C418.418 14.552 419.57 14.984 420.466 15.848C421.394 16.68 421.858 17.736 421.858 19.016C421.858 20.264 421.394 21.32 420.466 22.184C419.57 23.016 418.418 23.432 417.01 23.432ZM421.09 26.216V53H412.882V26.216H421.09Z" fill="#1BAAD1"/>
<defs>
<filter id="filter0_f_15_3243" x="0.583984" y="8.552" width="427.274" height="63.6479" filterUnits="userSpaceOnUse" color-interpolation-filters="sRGB">
<feFlood flood-opacity="0" result="BackgroundImageFix"/>
<feBlend mode="normal" in="SourceGraphic" in2="BackgroundImageFix" result="shape"/>
<feGaussianBlur stdDeviation="3" result="effect1_foregroundBlur_15_3243"/>
</filter>
</defs>
</svg>
