<svg width="512" height="140" viewBox="0 0 512 140" fill="none" xmlns="http://www.w3.org/2000/svg">
<g opacity="0.6" filter="url(#filter0_f_28_3447)">
<path d="M86.136 20.304V54H77.928V33.792L70.392 54H63.768L56.184 33.744V54H47.976V20.304H57.672L67.128 43.632L76.488 20.304H86.136ZM90.4065 40.56C90.4065 37.808 90.9185 35.392 91.9425 33.312C92.9985 31.232 94.4225 29.632 96.2145 28.512C98.0065 27.392 100.007 26.832 102.215 26.832C104.103 26.832 105.751 27.216 107.159 27.984C108.599 28.752 109.703 29.76 110.471 31.008V27.216H118.679V54H110.471V50.208C109.671 51.456 108.551 52.464 107.111 53.232C105.703 54 104.055 54.384 102.167 54.384C99.9905 54.384 98.0065 53.824 96.2145 52.704C94.4225 51.552 92.9985 49.936 91.9425 47.856C90.9185 45.744 90.4065 43.312 90.4065 40.56ZM110.471 40.608C110.471 38.56 109.895 36.944 108.743 35.76C107.623 34.576 106.247 33.984 104.615 33.984C102.983 33.984 101.591 34.576 100.439 35.76C99.3185 36.912 98.7585 38.512 98.7585 40.56C98.7585 42.608 99.3185 44.24 100.439 45.456C101.591 46.64 102.983 47.232 104.615 47.232C106.247 47.232 107.623 46.64 108.743 45.456C109.895 44.272 110.471 42.656 110.471 40.608ZM140.985 54L132.825 42.768V54H124.617V18.48H132.825V38.112L140.937 27.216H151.065L139.929 40.656L151.161 54H140.985ZM179.536 40.176C179.536 40.944 179.489 41.744 179.393 42.576H160.817C160.945 44.24 161.473 45.52 162.401 46.416C163.361 47.28 164.529 47.712 165.905 47.712C167.953 47.712 169.377 46.848 170.177 45.12H178.913C178.465 46.88 177.649 48.464 176.465 49.872C175.313 51.28 173.857 52.384 172.097 53.184C170.337 53.984 168.369 54.384 166.193 54.384C163.569 54.384 161.233 53.824 159.185 52.704C157.137 51.584 155.537 49.984 154.385 47.904C153.233 45.824 152.657 43.392 152.657 40.608C152.657 37.824 153.217 35.392 154.337 33.312C155.489 31.232 157.089 29.632 159.137 28.512C161.185 27.392 163.537 26.832 166.193 26.832C168.785 26.832 171.089 27.376 173.105 28.464C175.121 29.552 176.689 31.104 177.809 33.12C178.961 35.136 179.536 37.488 179.536 40.176ZM171.137 38.016C171.137 36.608 170.657 35.488 169.697 34.656C168.737 33.824 167.537 33.408 166.097 33.408C164.721 33.408 163.553 33.808 162.593 34.608C161.665 35.408 161.089 36.544 160.865 38.016H171.137ZM221.399 27.216L204.599 66.72H195.767L201.911 53.088L191.014 27.216H200.183L206.375 43.968L212.519 27.216H221.399ZM236.559 54.384C233.935 54.384 231.567 53.824 229.455 52.704C227.375 51.584 225.727 49.984 224.511 47.904C223.327 45.824 222.735 43.392 222.735 40.608C222.735 37.856 223.343 35.44 224.559 33.36C225.775 31.248 227.439 29.632 229.551 28.512C231.663 27.392 234.031 26.832 236.655 26.832C239.279 26.832 241.647 27.392 243.759 28.512C245.871 29.632 247.535 31.248 248.751 33.36C249.967 35.44 250.575 37.856 250.575 40.608C250.575 43.36 249.951 45.792 248.703 47.904C247.487 49.984 245.807 51.584 243.663 52.704C241.551 53.824 239.183 54.384 236.559 54.384ZM236.559 47.28C238.127 47.28 239.455 46.704 240.543 45.552C241.663 44.4 242.223 42.752 242.223 40.608C242.223 38.464 241.679 36.816 240.591 35.664C239.535 34.512 238.223 33.936 236.655 33.936C235.055 33.936 233.727 34.512 232.671 35.664C231.615 36.784 231.087 38.432 231.087 40.608C231.087 42.752 231.599 44.4 232.623 45.552C233.679 46.704 234.991 47.28 236.559 47.28ZM281.377 27.216V54H273.169V50.352C272.337 51.536 271.201 52.496 269.761 53.232C268.353 53.936 266.785 54.288 265.057 54.288C263.009 54.288 261.201 53.84 259.633 52.944C258.065 52.016 256.849 50.688 255.985 48.96C255.121 47.232 254.689 45.2 254.689 42.864V27.216H262.849V41.76C262.849 43.552 263.313 44.944 264.241 45.936C265.169 46.928 266.417 47.424 267.985 47.424C269.585 47.424 270.849 46.928 271.777 45.936C272.705 44.944 273.169 43.552 273.169 41.76V27.216H281.377ZM295.481 31.68C296.441 30.208 297.641 29.056 299.081 28.224C300.521 27.36 302.121 26.928 303.881 26.928V35.616H301.625C299.577 35.616 298.041 36.064 297.017 36.96C295.993 37.824 295.481 39.36 295.481 41.568V54H287.273V27.216H295.481V31.68ZM334.344 54L326.184 42.768V54H317.976V18.48H326.184V38.112L334.296 27.216H344.424L333.288 40.656L344.52 54H334.344ZM372.896 40.176C372.896 40.944 372.848 41.744 372.752 42.576H354.176C354.304 44.24 354.832 45.52 355.76 46.416C356.72 47.28 357.888 47.712 359.264 47.712C361.312 47.712 362.736 46.848 363.536 45.12H372.272C371.824 46.88 371.008 48.464 369.824 49.872C368.672 51.28 367.216 52.384 365.456 53.184C363.696 53.984 361.728 54.384 359.552 54.384C356.928 54.384 354.592 53.824 352.544 52.704C350.496 51.584 348.896 49.984 347.744 47.904C346.592 45.824 346.016 43.392 346.016 40.608C346.016 37.824 346.576 35.392 347.696 33.312C348.848 31.232 350.448 29.632 352.496 28.512C354.544 27.392 356.896 26.832 359.552 26.832C362.144 26.832 364.448 27.376 366.464 28.464C368.48 29.552 370.048 31.104 371.168 33.12C372.32 35.136 372.896 37.488 372.896 40.176ZM364.496 38.016C364.496 36.608 364.016 35.488 363.056 34.656C362.096 33.824 360.896 33.408 359.456 33.408C358.08 33.408 356.912 33.808 355.952 34.608C355.024 35.408 354.448 36.544 354.224 38.016H364.496ZM404.586 27.216L387.786 66.72H378.954L385.098 53.088L374.202 27.216H383.37L389.562 43.968L395.706 27.216H404.586ZM432.654 47.04V54H428.478C425.502 54 423.182 53.28 421.518 51.84C419.854 50.368 419.022 47.984 419.022 44.688V34.032H415.758V27.216H419.022V20.688H427.23V27.216H432.606V34.032H427.23V44.784C427.23 45.584 427.422 46.16 427.806 46.512C428.19 46.864 428.83 47.04 429.726 47.04H432.654ZM449.418 54.384C446.794 54.384 444.426 53.824 442.314 52.704C440.234 51.584 438.586 49.984 437.37 47.904C436.186 45.824 435.594 43.392 435.594 40.608C435.594 37.856 436.202 35.44 437.418 33.36C438.634 31.248 440.298 29.632 442.41 28.512C444.522 27.392 446.89 26.832 449.514 26.832C452.138 26.832 454.506 27.392 456.618 28.512C458.73 29.632 460.394 31.248 461.61 33.36C462.826 35.44 463.434 37.856 463.434 40.608C463.434 43.36 462.81 45.792 461.562 47.904C460.346 49.984 458.666 51.584 456.522 52.704C454.41 53.824 452.042 54.384 449.418 54.384ZM449.418 47.28C450.986 47.28 452.314 46.704 453.402 45.552C454.522 44.4 455.082 42.752 455.082 40.608C455.082 38.464 454.538 36.816 453.45 35.664C452.394 34.512 451.082 33.936 449.514 33.936C447.914 33.936 446.586 34.512 445.53 35.664C444.474 36.784 443.946 38.432 443.946 40.608C443.946 42.752 444.458 44.4 445.482 45.552C446.538 46.704 447.85 47.28 449.418 47.28ZM62.904 119.04V126H58.728C55.752 126 53.432 125.28 51.768 123.84C50.104 122.368 49.272 119.984 49.272 116.688V106.032H46.008V99.216H49.272V92.688H57.48V99.216H62.856V106.032H57.48V116.784C57.48 117.584 57.672 118.16 58.056 118.512C58.44 118.864 59.08 119.04 59.976 119.04H62.904ZM83.94 98.928C87.012 98.928 89.476 99.952 91.332 102C93.188 104.016 94.116 106.8 94.116 110.352V126H85.956V111.456C85.956 109.664 85.492 108.272 84.564 107.28C83.636 106.288 82.388 105.792 80.82 105.792C79.252 105.792 78.004 106.288 77.076 107.28C76.148 108.272 75.684 109.664 75.684 111.456V126H67.476V90.48H75.684V102.816C76.516 101.632 77.652 100.688 79.092 99.984C80.532 99.28 82.148 98.928 83.94 98.928ZM125.068 112.176C125.068 112.944 125.02 113.744 124.924 114.576H106.348C106.476 116.24 107.004 117.52 107.932 118.416C108.892 119.28 110.06 119.712 111.436 119.712C113.484 119.712 114.908 118.848 115.708 117.12H124.444C123.996 118.88 123.18 120.464 121.996 121.872C120.844 123.28 119.388 124.384 117.628 125.184C115.868 125.984 113.9 126.384 111.724 126.384C109.1 126.384 106.764 125.824 104.716 124.704C102.668 123.584 101.068 121.984 99.9158 119.904C98.7638 117.824 98.1878 115.392 98.1878 112.608C98.1878 109.824 98.7478 107.392 99.8678 105.312C101.02 103.232 102.62 101.632 104.668 100.512C106.716 99.392 109.068 98.832 111.724 98.832C114.316 98.832 116.62 99.376 118.636 100.464C120.652 101.552 122.22 103.104 123.34 105.12C124.492 107.136 125.068 109.488 125.068 112.176ZM116.668 110.016C116.668 108.608 116.188 107.488 115.228 106.656C114.268 105.824 113.068 105.408 111.628 105.408C110.252 105.408 109.084 105.808 108.124 106.608C107.196 107.408 106.62 108.544 106.396 110.016H116.668ZM249.262 103.68C250.222 102.208 251.422 101.056 252.862 100.224C254.302 99.36 255.902 98.928 257.662 98.928V107.616H255.406C253.358 107.616 251.822 108.064 250.798 108.96C249.774 109.824 249.262 111.36 249.262 113.568V126H241.054V99.216H249.262V103.68Z" fill="#073946"/>
<path d="M153.01 106.032H148.594V126H140.386V106.032H137.41V99.216H140.386V98.448C140.386 95.152 141.33 92.656 143.218 90.96C145.106 89.232 147.874 88.368 151.522 88.368C152.13 88.368 152.578 88.384 152.866 88.416V95.376C151.298 95.28 150.194 95.504 149.554 96.048C148.914 96.592 148.594 97.568 148.594 98.976V99.216H153.01V106.032Z" fill="#85DEDE"/>
<path d="M183.315 99.216V126H175.107V122.352C174.275 123.536 173.139 124.496 171.699 125.232C170.291 125.936 168.723 126.288 166.995 126.288C164.947 126.288 163.139 125.84 161.571 124.944C160.003 124.016 158.787 122.688 157.923 120.96C157.059 119.232 156.627 117.2 156.627 114.864V99.216H164.787V113.76C164.787 115.552 165.251 116.944 166.179 117.936C167.107 118.928 168.355 119.424 169.923 119.424C171.523 119.424 172.787 118.928 173.715 117.936C174.643 116.944 175.107 115.552 175.107 113.76V99.216H183.315Z" fill="#031D24" fill-opacity="0.24"/>
<path d="M204.138 119.04V126H199.962C196.986 126 194.666 125.28 193.002 123.84C191.338 122.368 190.506 119.984 190.506 116.688V106.032H187.242V99.216H190.506V92.688H198.714V99.216H204.09V106.032H198.714V116.784C198.714 117.584 198.906 118.16 199.29 118.512C199.674 118.864 200.314 119.04 201.21 119.04H204.138Z" fill="#366875"/>
<path d="M235.158 99.216V126H226.95V122.352C226.118 123.536 224.982 124.496 223.542 125.232C222.134 125.936 220.566 126.288 218.838 126.288C216.79 126.288 214.982 125.84 213.414 124.944C211.846 124.016 210.63 122.688 209.766 120.96C208.902 119.232 208.47 117.2 208.47 114.864V99.216H216.63V113.76C216.63 115.552 217.094 116.944 218.022 117.936C218.95 118.928 220.198 119.424 221.766 119.424C223.366 119.424 224.63 118.928 225.558 117.936C226.486 116.944 226.95 115.552 226.95 113.76V99.216H235.158Z" fill="#67AFC3"/>
<path d="M286.833 112.176C286.833 112.944 286.785 113.744 286.689 114.576H268.113C268.241 116.24 268.769 117.52 269.697 118.416C270.657 119.28 271.825 119.712 273.201 119.712C275.249 119.712 276.673 118.848 277.473 117.12H286.209C285.761 118.88 284.945 120.464 283.761 121.872C282.609 123.28 281.153 124.384 279.393 125.184C277.633 125.984 275.665 126.384 273.489 126.384C270.865 126.384 268.529 125.824 266.481 124.704C264.433 123.584 262.833 121.984 261.681 119.904C260.529 117.824 259.953 115.392 259.953 112.608C259.953 109.824 260.513 107.392 261.633 105.312C262.785 103.232 264.385 101.632 266.433 100.512C268.481 99.392 270.833 98.832 273.489 98.832C276.081 98.832 278.385 99.376 280.401 100.464C282.417 101.552 283.985 103.104 285.105 105.12C286.257 107.136 286.833 109.488 286.833 112.176ZM278.433 110.016C278.433 108.608 277.953 107.488 276.993 106.656C276.033 105.824 274.833 105.408 273.393 105.408C272.017 105.408 270.849 105.808 269.889 106.608C268.961 107.408 268.385 108.544 268.161 110.016H278.433Z" fill="#89AFB9"/>
<path d="M312.135 91.104L311.175 114.096H304.215L303.255 91.104H312.135ZM307.815 126.384C306.375 126.384 305.191 125.968 304.263 125.136C303.367 124.272 302.919 123.216 302.919 121.968C302.919 120.688 303.367 119.616 304.263 118.752C305.191 117.888 306.375 117.456 307.815 117.456C309.223 117.456 310.375 117.888 311.271 118.752C312.199 119.616 312.663 120.688 312.663 121.968C312.663 123.216 312.199 124.272 311.271 125.136C310.375 125.968 309.223 126.384 307.815 126.384Z" fill="#094D9C"/>
</g>
<path d="M86.136 20.304V54H77.928V33.792L70.392 54H63.768L56.184 33.744V54H47.976V20.304H57.672L67.128 43.632L76.488 20.304H86.136ZM90.4065 40.56C90.4065 37.808 90.9185 35.392 91.9425 33.312C92.9985 31.232 94.4225 29.632 96.2145 28.512C98.0065 27.392 100.007 26.832 102.215 26.832C104.103 26.832 105.751 27.216 107.159 27.984C108.599 28.752 109.703 29.76 110.471 31.008V27.216H118.679V54H110.471V50.208C109.671 51.456 108.551 52.464 107.111 53.232C105.703 54 104.055 54.384 102.167 54.384C99.9905 54.384 98.0065 53.824 96.2145 52.704C94.4225 51.552 92.9985 49.936 91.9425 47.856C90.9185 45.744 90.4065 43.312 90.4065 40.56ZM110.471 40.608C110.471 38.56 109.895 36.944 108.743 35.76C107.623 34.576 106.247 33.984 104.615 33.984C102.983 33.984 101.591 34.576 100.439 35.76C99.3185 36.912 98.7585 38.512 98.7585 40.56C98.7585 42.608 99.3185 44.24 100.439 45.456C101.591 46.64 102.983 47.232 104.615 47.232C106.247 47.232 107.623 46.64 108.743 45.456C109.895 44.272 110.471 42.656 110.471 40.608ZM140.985 54L132.825 42.768V54H124.617V18.48H132.825V38.112L140.937 27.216H151.065L139.929 40.656L151.161 54H140.985ZM179.536 40.176C179.536 40.944 179.489 41.744 179.393 42.576H160.817C160.945 44.24 161.473 45.52 162.401 46.416C163.361 47.28 164.529 47.712 165.905 47.712C167.953 47.712 169.377 46.848 170.177 45.12H178.913C178.465 46.88 177.649 48.464 176.465 49.872C175.313 51.28 173.857 52.384 172.097 53.184C170.337 53.984 168.369 54.384 166.193 54.384C163.569 54.384 161.233 53.824 159.185 52.704C157.137 51.584 155.537 49.984 154.385 47.904C153.233 45.824 152.657 43.392 152.657 40.608C152.657 37.824 153.217 35.392 154.337 33.312C155.489 31.232 157.089 29.632 159.137 28.512C161.185 27.392 163.537 26.832 166.193 26.832C168.785 26.832 171.089 27.376 173.105 28.464C175.121 29.552 176.689 31.104 177.809 33.12C178.961 35.136 179.536 37.488 179.536 40.176ZM171.137 38.016C171.137 36.608 170.657 35.488 169.697 34.656C168.737 33.824 167.537 33.408 166.097 33.408C164.721 33.408 163.553 33.808 162.593 34.608C161.665 35.408 161.089 36.544 160.865 38.016H171.137ZM221.399 27.216L204.599 66.72H195.767L201.911 53.088L191.014 27.216H200.183L206.375 43.968L212.519 27.216H221.399ZM236.559 54.384C233.935 54.384 231.567 53.824 229.455 52.704C227.375 51.584 225.727 49.984 224.511 47.904C223.327 45.824 222.735 43.392 222.735 40.608C222.735 37.856 223.343 35.44 224.559 33.36C225.775 31.248 227.439 29.632 229.551 28.512C231.663 27.392 234.031 26.832 236.655 26.832C239.279 26.832 241.647 27.392 243.759 28.512C245.871 29.632 247.535 31.248 248.751 33.36C249.967 35.44 250.575 37.856 250.575 40.608C250.575 43.36 249.951 45.792 248.703 47.904C247.487 49.984 245.807 51.584 243.663 52.704C241.551 53.824 239.183 54.384 236.559 54.384ZM236.559 47.28C238.127 47.28 239.455 46.704 240.543 45.552C241.663 44.4 242.223 42.752 242.223 40.608C242.223 38.464 241.679 36.816 240.591 35.664C239.535 34.512 238.223 33.936 236.655 33.936C235.055 33.936 233.727 34.512 232.671 35.664C231.615 36.784 231.087 38.432 231.087 40.608C231.087 42.752 231.599 44.4 232.623 45.552C233.679 46.704 234.991 47.28 236.559 47.28ZM281.377 27.216V54H273.169V50.352C272.337 51.536 271.201 52.496 269.761 53.232C268.353 53.936 266.785 54.288 265.057 54.288C263.009 54.288 261.201 53.84 259.633 52.944C258.065 52.016 256.849 50.688 255.985 48.96C255.121 47.232 254.689 45.2 254.689 42.864V27.216H262.849V41.76C262.849 43.552 263.313 44.944 264.241 45.936C265.169 46.928 266.417 47.424 267.985 47.424C269.585 47.424 270.849 46.928 271.777 45.936C272.705 44.944 273.169 43.552 273.169 41.76V27.216H281.377ZM295.481 31.68C296.441 30.208 297.641 29.056 299.081 28.224C300.521 27.36 302.121 26.928 303.881 26.928V35.616H301.625C299.577 35.616 298.041 36.064 297.017 36.96C295.993 37.824 295.481 39.36 295.481 41.568V54H287.273V27.216H295.481V31.68ZM334.344 54L326.184 42.768V54H317.976V18.48H326.184V38.112L334.296 27.216H344.424L333.288 40.656L344.52 54H334.344ZM372.896 40.176C372.896 40.944 372.848 41.744 372.752 42.576H354.176C354.304 44.24 354.832 45.52 355.76 46.416C356.72 47.28 357.888 47.712 359.264 47.712C361.312 47.712 362.736 46.848 363.536 45.12H372.272C371.824 46.88 371.008 48.464 369.824 49.872C368.672 51.28 367.216 52.384 365.456 53.184C363.696 53.984 361.728 54.384 359.552 54.384C356.928 54.384 354.592 53.824 352.544 52.704C350.496 51.584 348.896 49.984 347.744 47.904C346.592 45.824 346.016 43.392 346.016 40.608C346.016 37.824 346.576 35.392 347.696 33.312C348.848 31.232 350.448 29.632 352.496 28.512C354.544 27.392 356.896 26.832 359.552 26.832C362.144 26.832 364.448 27.376 366.464 28.464C368.48 29.552 370.048 31.104 371.168 33.12C372.32 35.136 372.896 37.488 372.896 40.176ZM364.496 38.016C364.496 36.608 364.016 35.488 363.056 34.656C362.096 33.824 360.896 33.408 359.456 33.408C358.08 33.408 356.912 33.808 355.952 34.608C355.024 35.408 354.448 36.544 354.224 38.016H364.496ZM404.586 27.216L387.786 66.72H378.954L385.098 53.088L374.202 27.216H383.37L389.562 43.968L395.706 27.216H404.586ZM432.654 47.04V54H428.478C425.502 54 423.182 53.28 421.518 51.84C419.854 50.368 419.022 47.984 419.022 44.688V34.032H415.758V27.216H419.022V20.688H427.23V27.216H432.606V34.032H427.23V44.784C427.23 45.584 427.422 46.16 427.806 46.512C428.19 46.864 428.83 47.04 429.726 47.04H432.654ZM449.418 54.384C446.794 54.384 444.426 53.824 442.314 52.704C440.234 51.584 438.586 49.984 437.37 47.904C436.186 45.824 435.594 43.392 435.594 40.608C435.594 37.856 436.202 35.44 437.418 33.36C438.634 31.248 440.298 29.632 442.41 28.512C444.522 27.392 446.89 26.832 449.514 26.832C452.138 26.832 454.506 27.392 456.618 28.512C458.73 29.632 460.394 31.248 461.61 33.36C462.826 35.44 463.434 37.856 463.434 40.608C463.434 43.36 462.81 45.792 461.562 47.904C460.346 49.984 458.666 51.584 456.522 52.704C454.41 53.824 452.042 54.384 449.418 54.384ZM449.418 47.28C450.986 47.28 452.314 46.704 453.402 45.552C454.522 44.4 455.082 42.752 455.082 40.608C455.082 38.464 454.538 36.816 453.45 35.664C452.394 34.512 451.082 33.936 449.514 33.936C447.914 33.936 446.586 34.512 445.53 35.664C444.474 36.784 443.946 38.432 443.946 40.608C443.946 42.752 444.458 44.4 445.482 45.552C446.538 46.704 447.85 47.28 449.418 47.28ZM62.904 119.04V126H58.728C55.752 126 53.432 125.28 51.768 123.84C50.104 122.368 49.272 119.984 49.272 116.688V106.032H46.008V99.216H49.272V92.688H57.48V99.216H62.856V106.032H57.48V116.784C57.48 117.584 57.672 118.16 58.056 118.512C58.44 118.864 59.08 119.04 59.976 119.04H62.904ZM83.94 98.928C87.012 98.928 89.476 99.952 91.332 102C93.188 104.016 94.116 106.8 94.116 110.352V126H85.956V111.456C85.956 109.664 85.492 108.272 84.564 107.28C83.636 106.288 82.388 105.792 80.82 105.792C79.252 105.792 78.004 106.288 77.076 107.28C76.148 108.272 75.684 109.664 75.684 111.456V126H67.476V90.48H75.684V102.816C76.516 101.632 77.652 100.688 79.092 99.984C80.532 99.28 82.148 98.928 83.94 98.928ZM125.068 112.176C125.068 112.944 125.02 113.744 124.924 114.576H106.348C106.476 116.24 107.004 117.52 107.932 118.416C108.892 119.28 110.06 119.712 111.436 119.712C113.484 119.712 114.908 118.848 115.708 117.12H124.444C123.996 118.88 123.18 120.464 121.996 121.872C120.844 123.28 119.388 124.384 117.628 125.184C115.868 125.984 113.9 126.384 111.724 126.384C109.1 126.384 106.764 125.824 104.716 124.704C102.668 123.584 101.068 121.984 99.9158 119.904C98.7638 117.824 98.1878 115.392 98.1878 112.608C98.1878 109.824 98.7478 107.392 99.8678 105.312C101.02 103.232 102.62 101.632 104.668 100.512C106.716 99.392 109.068 98.832 111.724 98.832C114.316 98.832 116.62 99.376 118.636 100.464C120.652 101.552 122.22 103.104 123.34 105.12C124.492 107.136 125.068 109.488 125.068 112.176ZM116.668 110.016C116.668 108.608 116.188 107.488 115.228 106.656C114.268 105.824 113.068 105.408 111.628 105.408C110.252 105.408 109.084 105.808 108.124 106.608C107.196 107.408 106.62 108.544 106.396 110.016H116.668ZM249.262 103.68C250.222 102.208 251.422 101.056 252.862 100.224C254.302 99.36 255.902 98.928 257.662 98.928V107.616H255.406C253.358 107.616 251.822 108.064 250.798 108.96C249.774 109.824 249.262 111.36 249.262 113.568V126H241.054V99.216H249.262V103.68Z" fill="#073946"/>
<path d="M153.01 106.032H148.594V126H140.386V106.032H137.41V99.216H140.386V98.448C140.386 95.152 141.33 92.656 143.218 90.96C145.106 89.232 147.874 88.368 151.522 88.368C152.13 88.368 152.578 88.384 152.866 88.416V95.376C151.298 95.28 150.194 95.504 149.554 96.048C148.914 96.592 148.594 97.568 148.594 98.976V99.216H153.01V106.032Z" fill="#85DEDE"/>
<path d="M183.315 99.216V126H175.107V122.352C174.275 123.536 173.139 124.496 171.699 125.232C170.291 125.936 168.723 126.288 166.995 126.288C164.947 126.288 163.139 125.84 161.571 124.944C160.003 124.016 158.787 122.688 157.923 120.96C157.059 119.232 156.627 117.2 156.627 114.864V99.216H164.787V113.76C164.787 115.552 165.251 116.944 166.179 117.936C167.107 118.928 168.355 119.424 169.923 119.424C171.523 119.424 172.787 118.928 173.715 117.936C174.643 116.944 175.107 115.552 175.107 113.76V99.216H183.315Z" fill="#031D24" fill-opacity="0.24"/>
<path d="M204.138 119.04V126H199.962C196.986 126 194.666 125.28 193.002 123.84C191.338 122.368 190.506 119.984 190.506 116.688V106.032H187.242V99.216H190.506V92.688H198.714V99.216H204.09V106.032H198.714V116.784C198.714 117.584 198.906 118.16 199.29 118.512C199.674 118.864 200.314 119.04 201.21 119.04H204.138Z" fill="#366875"/>
<path d="M235.158 99.216V126H226.95V122.352C226.118 123.536 224.982 124.496 223.542 125.232C222.134 125.936 220.566 126.288 218.838 126.288C216.79 126.288 214.982 125.84 213.414 124.944C211.846 124.016 210.63 122.688 209.766 120.96C208.902 119.232 208.47 117.2 208.47 114.864V99.216H216.63V113.76C216.63 115.552 217.094 116.944 218.022 117.936C218.95 118.928 220.198 119.424 221.766 119.424C223.366 119.424 224.63 118.928 225.558 117.936C226.486 116.944 226.95 115.552 226.95 113.76V99.216H235.158Z" fill="#67AFC3"/>
<path d="M286.833 112.176C286.833 112.944 286.785 113.744 286.689 114.576H268.113C268.241 116.24 268.769 117.52 269.697 118.416C270.657 119.28 271.825 119.712 273.201 119.712C275.249 119.712 276.673 118.848 277.473 117.12H286.209C285.761 118.88 284.945 120.464 283.761 121.872C282.609 123.28 281.153 124.384 279.393 125.184C277.633 125.984 275.665 126.384 273.489 126.384C270.865 126.384 268.529 125.824 266.481 124.704C264.433 123.584 262.833 121.984 261.681 119.904C260.529 117.824 259.953 115.392 259.953 112.608C259.953 109.824 260.513 107.392 261.633 105.312C262.785 103.232 264.385 101.632 266.433 100.512C268.481 99.392 270.833 98.832 273.489 98.832C276.081 98.832 278.385 99.376 280.401 100.464C282.417 101.552 283.985 103.104 285.105 105.12C286.257 107.136 286.833 109.488 286.833 112.176ZM278.433 110.016C278.433 108.608 277.953 107.488 276.993 106.656C276.033 105.824 274.833 105.408 273.393 105.408C272.017 105.408 270.849 105.808 269.889 106.608C268.961 107.408 268.385 108.544 268.161 110.016H278.433Z" fill="#89AFB9"/>
<path d="M312.135 91.104L311.175 114.096H304.215L303.255 91.104H312.135ZM307.815 126.384C306.375 126.384 305.191 125.968 304.263 125.136C303.367 124.272 302.919 123.216 302.919 121.968C302.919 120.688 303.367 119.616 304.263 118.752C305.191 117.888 306.375 117.456 307.815 117.456C309.223 117.456 310.375 117.888 311.271 118.752C312.199 119.616 312.663 120.688 312.663 121.968C312.663 123.216 312.199 124.272 311.271 125.136C310.375 125.968 309.223 126.384 307.815 126.384Z" fill="#094D9C"/>
<path fill-rule="evenodd" clip-rule="evenodd" d="M16 0H0V16V32H16V48H32V32V16H16V0Z" fill="#1BAAD1"/>
<defs>
<filter id="filter0_f_28_3447" x="42.0081" y="14.48" width="425.426" height="115.904" filterUnits="userSpaceOnUse" color-interpolation-filters="sRGB">
<feFlood flood-opacity="0" result="BackgroundImageFix"/>
<feBlend mode="normal" in="SourceGraphic" in2="BackgroundImageFix" result="shape"/>
<feGaussianBlur stdDeviation="2" result="effect1_foregroundBlur_28_3447"/>
</filter>
</defs>
</svg>
