<svg width="28" height="28" viewBox="0 0 28 28" fill="none" xmlns="http://www.w3.org/2000/svg">
<g clip-path="url(#clip0_103_2169)">
<path d="M17.2935 13.6593C17.3544 13.6926 17.405 13.742 17.4398 13.8021C17.4745 13.8621 17.4921 13.9306 17.4907 14C17.4942 14.0592 17.4833 14.1184 17.4589 14.1724C17.4345 14.2265 17.3974 14.2738 17.3507 14.3103L11.0833 17.4463C11.0236 17.4793 10.9564 17.4962 10.8882 17.4954C10.82 17.4945 10.7532 17.4759 10.6944 17.4414C10.6355 17.407 10.5867 17.3578 10.5526 17.2987C10.5185 17.2396 10.5004 17.1727 10.5 17.1045V10.8955C10.4987 10.8263 10.5162 10.758 10.5508 10.698C10.5853 10.638 10.6355 10.5885 10.696 10.5548C10.7517 10.5227 10.8149 10.5058 10.8792 10.5058C10.9732 10.5086 11.0649 10.536 11.1452 10.5852L17.2935 13.6593ZM28 5.83333V22.1667C27.9981 23.7132 27.383 25.1959 26.2894 26.2894C25.1959 27.383 23.7132 27.9981 22.1667 28H5.83333C4.28681 27.9981 2.80415 27.383 1.71059 26.2894C0.617029 25.1959 0.0018525 23.7132 0 22.1667L0 5.83333C0.0018525 4.28681 0.617029 2.80415 1.71059 1.71059C2.80415 0.617029 4.28681 0.0018525 5.83333 0L22.1667 0C23.7132 0.0018525 25.1959 0.617029 26.2894 1.71059C27.383 2.80415 27.9981 4.28681 28 5.83333ZM19.824 14C19.8244 13.5084 19.6916 13.0259 19.4398 12.6038C19.1879 12.1817 18.8264 11.8356 18.3937 11.6025L12.236 8.52833C11.8212 8.29038 11.3512 8.16568 10.873 8.16675C10.3949 8.16782 9.92541 8.29463 9.51173 8.53444C9.09806 8.77426 8.75472 9.11865 8.51618 9.53306C8.27763 9.94748 8.15227 10.4173 8.15267 10.8955V17.1045C8.14987 17.5826 8.27413 18.0528 8.51274 18.4671C8.75135 18.8814 9.09574 19.2248 9.51067 19.4623C9.93068 19.7075 10.408 19.8375 10.8943 19.8392C11.3443 19.8412 11.7868 19.7249 12.1777 19.502L18.4497 16.3672C18.869 16.131 19.2176 15.787 19.4592 15.3708C19.7009 14.9545 19.8268 14.4813 19.824 14Z" fill="#374957"/>
</g>
<defs>
<clipPath id="clip0_103_2169">
<rect width="28" height="28" fill="white"/>
</clipPath>
</defs>
</svg>
