<svg width="134" height="53" viewBox="0 0 134 53" fill="none" xmlns="http://www.w3.org/2000/svg">
<path d="M-111 2C-98.8334 2 -98.8334 51.1957 -86.6669 51.1957C-74.5003 51.1957 -74.5003 2 -62.3338 2C-50.1672 2 -50.1672 51.1957 -38.0292 51.1957C-25.8623 51.1957 -25.8623 2 -13.7246 2C-1.55778 2 -1.55779 51.1957 10.5799 51.1957C22.7467 51.1957 22.7467 2 34.9126 2C47.0795 2 47.0795 51.1957 59.2463 51.1957C71.4122 51.1957 71.4122 2 83.579 2C95.7458 2 95.7458 51.1957 107.913 51.1957C120.079 51.1957 120.079 2 132.245 2" stroke="#4F4F4F" stroke-opacity="0.17" stroke-width="3" stroke-miterlimit="10" stroke-linecap="round"/>
</svg>
