<svg width="40" height="40" viewBox="0 0 40 40" fill="none" xmlns="http://www.w3.org/2000/svg">
<g clip-path="url(#clip0_56_5455)">
<path d="M37.5004 6.62695H32.357C32.0274 6.62702 31.7053 6.72481 31.4313 6.90795C31.1572 7.09109 30.9437 7.35136 30.8176 7.65586C30.6914 7.96036 30.6584 8.29542 30.7227 8.61867C30.787 8.94193 30.9457 9.23887 31.1787 9.47195L32.9887 11.282L27.012 17.257C26.6945 17.5604 26.2721 17.7298 25.8329 17.7298C25.3936 17.7298 24.9712 17.5604 24.6537 17.257L24.3704 16.972C23.418 16.0621 22.1516 15.5543 20.8345 15.5543C19.5174 15.5543 18.251 16.0621 17.2987 16.972L8.79869 25.472C8.48551 25.786 8.30992 26.2116 8.31055 26.6551C8.31117 27.0987 8.48796 27.5238 8.80202 27.837C9.11608 28.1501 9.54169 28.3257 9.98521 28.3251C10.4287 28.3245 10.8538 28.1477 11.167 27.8336L19.667 19.3336C19.9844 19.0297 20.4068 18.8601 20.8462 18.8601C21.2856 18.8601 21.708 19.0297 22.0254 19.3336L22.3087 19.6186C23.2614 20.5277 24.5277 21.035 25.8445 21.035C27.1614 21.035 28.4277 20.5277 29.3804 19.6186L35.357 13.642L37.167 15.452C37.4009 15.6812 37.6971 15.8365 38.0187 15.8984C38.3403 15.9603 38.673 15.926 38.9753 15.8C39.2775 15.6739 39.5359 15.4616 39.7182 15.1896C39.9006 14.9175 39.9987 14.5978 40.0004 14.2703V9.12695C40.0004 8.46391 39.737 7.82803 39.2681 7.35919C38.7993 6.89035 38.1634 6.62695 37.5004 6.62695Z" fill="white"/>
<path d="M38.3333 36.6267H8.33333C7.00725 36.6267 5.73548 36.0999 4.7978 35.1622C3.86012 34.2245 3.33333 32.9527 3.33333 31.6267V1.66667C3.33333 1.22464 3.15774 0.800716 2.84518 0.488155C2.53262 0.175595 2.10869 0 1.66667 0C1.22464 0 0.800716 0.175595 0.488155 0.488155C0.175595 0.800716 0 1.22464 0 1.66667L0 31.6267C0.00264643 33.836 0.88147 35.9541 2.4437 37.5163C4.00593 39.0785 6.12401 39.9574 8.33333 39.96H38.3333C38.7754 39.96 39.1993 39.7844 39.5118 39.4718C39.8244 39.1593 40 38.7354 40 38.2933C40 37.8513 39.8244 37.4274 39.5118 37.1148C39.1993 36.8023 38.7754 36.6267 38.3333 36.6267Z" fill="white"/>
</g>
<defs>
<clipPath id="clip0_56_5455">
<rect width="40" height="40" fill="white"/>
</clipPath>
</defs>
</svg>
