<svg width="127" height="127" viewBox="0 0 127 127" fill="none" xmlns="http://www.w3.org/2000/svg">
<g clip-path="url(#clip0_55_4659)">
<path d="M121.708 84.6685C120.304 84.6685 118.958 85.226 117.966 86.2183C116.973 87.2107 116.416 88.5567 116.416 89.9601V100.543C116.416 104.754 114.743 108.792 111.766 111.769C108.789 114.746 104.751 116.418 100.541 116.418H89.9577C88.5542 116.418 87.2083 116.976 86.2159 117.968C85.2235 118.961 84.666 120.307 84.666 121.71C84.666 123.113 85.2235 124.459 86.2159 125.452C87.2083 126.444 88.5542 127.002 89.9577 127.002H100.541C107.556 126.993 114.28 124.203 119.241 119.243C124.201 114.283 126.991 107.558 126.999 100.543V89.9601C126.999 88.5567 126.442 87.2107 125.449 86.2183C124.457 85.226 123.111 84.6685 121.708 84.6685Z" fill="#2C446C"/>
<path d="M5.29167 42.3333C6.6951 42.3333 8.04106 41.7758 9.03344 40.7834C10.0258 39.7911 10.5833 38.4451 10.5833 37.0417V26.4583C10.5833 22.248 12.2559 18.2102 15.233 15.233C18.2102 12.2559 22.248 10.5833 26.4583 10.5833H37.0417C38.4451 10.5833 39.7911 10.0258 40.7834 9.03344C41.7758 8.04106 42.3333 6.6951 42.3333 5.29167C42.3333 3.88823 41.7758 2.54227 40.7834 1.54989C39.7911 0.557513 38.4451 0 37.0417 0L26.4583 0C19.4437 0.00840241 12.7188 2.79867 7.75875 7.75875C2.79867 12.7188 0.00840241 19.4437 0 26.4583L0 37.0417C0 38.4451 0.557513 39.7911 1.54989 40.7834C2.54227 41.7758 3.88823 42.3333 5.29167 42.3333Z" fill="#2C446C"/>
<path d="M37.0417 116.418H26.4583C22.248 116.418 18.2102 114.746 15.233 111.769C12.2559 108.792 10.5833 104.754 10.5833 100.543V89.9601C10.5833 88.5567 10.0258 87.2107 9.03344 86.2183C8.04106 85.226 6.6951 84.6685 5.29167 84.6685C3.88823 84.6685 2.54227 85.226 1.54989 86.2183C0.557513 87.2107 0 88.5567 0 89.9601L0 100.543C0.00840241 107.558 2.79867 114.283 7.75875 119.243C12.7188 124.203 19.4437 126.993 26.4583 127.002H37.0417C38.4451 127.002 39.7911 126.444 40.7834 125.452C41.7758 124.459 42.3333 123.113 42.3333 121.71C42.3333 120.307 41.7758 118.961 40.7834 117.968C39.7911 116.976 38.4451 116.418 37.0417 116.418Z" fill="#2C446C"/>
<path d="M100.541 0H89.9577C88.5542 0 87.2083 0.557513 86.2159 1.54989C85.2235 2.54227 84.666 3.88823 84.666 5.29167C84.666 6.6951 85.2235 8.04106 86.2159 9.03344C87.2083 10.0258 88.5542 10.5833 89.9577 10.5833H100.541C104.751 10.5833 108.789 12.2559 111.766 15.233C114.743 18.2102 116.416 22.248 116.416 26.4583V37.0417C116.416 38.4451 116.973 39.7911 117.966 40.7834C118.958 41.7758 120.304 42.3333 121.708 42.3333C123.111 42.3333 124.457 41.7758 125.449 40.7834C126.442 39.7911 126.999 38.4451 126.999 37.0417V26.4583C126.991 19.4437 124.201 12.7188 119.241 7.75875C114.28 2.79867 107.556 0.00840241 100.541 0V0Z" fill="#2C446C"/>
<path d="M63.5006 58.2083C75.1906 58.2083 84.6672 48.7317 84.6672 37.0417C84.6672 25.3516 75.1906 15.875 63.5006 15.875C51.8106 15.875 42.334 25.3516 42.334 37.0417C42.334 48.7317 51.8106 58.2083 63.5006 58.2083Z" fill="#2C446C"/>
<path d="M58.209 68.7935C49.7909 68.8019 41.7201 72.1496 35.7676 78.1021C29.8152 84.0546 26.4674 92.1254 26.459 100.543C26.459 101.947 27.0165 103.293 28.0089 104.285C29.0013 105.278 30.3472 105.835 31.7507 105.835H95.2506C96.6541 105.835 98 105.278 98.9924 104.285C99.9848 103.293 100.542 101.947 100.542 100.543C100.534 92.1254 97.1861 84.0546 91.2337 78.1021C85.2812 72.1496 77.2104 68.8019 68.7923 68.7935H58.209Z" fill="#2C446C"/>
</g>
<defs>
<clipPath id="clip0_55_4659">
<rect width="127" height="127" fill="white"/>
</clipPath>
</defs>
</svg>
