<svg width="21" height="20" viewBox="0 0 21 20" fill="none" xmlns="http://www.w3.org/2000/svg">
<path d="M5.9248 18.7499C5.9251 18.4185 6.05698 18.1008 6.29147 17.8666L12.6848 11.4733C12.8783 11.2798 13.0318 11.0501 13.1366 10.7973C13.2413 10.5445 13.2952 10.2736 13.2952 9.99993C13.2952 9.7263 13.2413 9.45535 13.1366 9.20255C13.0318 8.94975 12.8783 8.72006 12.6848 8.5266L6.2998 2.13743C6.07211 1.90168 5.94611 1.58593 5.94896 1.25818C5.95181 0.930435 6.08327 0.61692 6.31503 0.38516C6.54679 0.153399 6.86031 0.0219382 7.18805 0.0190902C7.5158 0.0162422 7.83155 0.142235 8.0673 0.369933L14.4523 6.7541C15.3108 7.61432 15.793 8.78001 15.793 9.99535C15.793 11.2107 15.3108 12.3764 14.4523 13.2366L8.05897 19.6299C7.88441 19.8046 7.66201 19.9237 7.41984 19.9721C7.17768 20.0205 6.9266 19.9961 6.6983 19.902C6.46999 19.8078 6.27468 19.6482 6.13702 19.4431C5.99936 19.2381 5.92551 18.9969 5.9248 18.7499Z" fill="white"/>
</svg>
