<svg width="33" height="33" viewBox="0 0 33 33" fill="none" xmlns="http://www.w3.org/2000/svg">
<g clip-path="url(#clip0_91_1629)">
<path d="M19.0376 23.7397L14.5529 28.2244C11.8169 30.8871 7.44051 30.8278 4.77775 28.092C2.16635 25.4089 2.16577 21.1345 4.7764 18.4507L9.2611 13.9619C9.79793 13.4246 9.79761 12.554 9.26039 12.0172C8.72318 11.4803 7.85251 11.4807 7.31568 12.0179L2.83233 16.5067C-0.940245 20.2812 -0.938698 26.3993 2.83575 30.1719C6.6102 33.9445 12.7283 33.9429 16.501 30.1685L20.9857 25.6838C21.5132 25.1376 21.498 24.2673 20.9519 23.7398C20.4191 23.2252 19.5745 23.2252 19.0417 23.7398H19.0376V23.7397Z" fill="white"/>
<path d="M30.1727 2.83407C28.3657 1.01457 25.9055 -0.00585768 23.3411 0.000522431C20.7782 -0.0063088 18.3189 1.012 16.5109 2.82859L12.0193 7.31464C11.4821 7.85148 11.4818 8.72213 12.0186 9.25935C12.5555 9.79657 13.4261 9.79689 13.9633 9.26006L18.4522 4.77536C19.745 3.47472 21.5045 2.74552 23.3384 2.75022C27.1561 2.75151 30.25 5.84741 30.2487 9.66517C30.2481 11.4975 29.52 13.2547 28.2245 14.5505L23.7398 19.0352C23.2026 19.5724 23.2026 20.4434 23.7398 20.9806C24.277 21.5178 25.148 21.5178 25.6852 20.9806L30.1699 16.4986C33.9372 12.7231 33.9384 6.61096 30.1727 2.83407Z" fill="white"/>
<path d="M19.6531 11.4025L11.4041 19.6515C10.8579 20.179 10.8428 21.0494 11.3703 21.5955C11.8978 22.1416 12.7682 22.1568 13.3143 21.6293C13.3258 21.6182 13.337 21.607 13.3481 21.5955L21.5971 13.3465C22.1246 12.8003 22.1094 11.93 21.5633 11.4025C21.0306 10.888 20.1859 10.888 19.6531 11.4025Z" fill="white"/>
</g>
<defs>
<clipPath id="clip0_91_1629">
<rect width="33" height="33" fill="white"/>
</clipPath>
</defs>
</svg>
