<svg width="47" height="47" viewBox="0 0 47 47" fill="none" xmlns="http://www.w3.org/2000/svg">
<g clip-path="url(#clip0_55_4461)">
<path d="M3.9167 21.5417H25.4584C27.6214 21.5417 29.375 19.7881 29.375 17.625V3.9167C29.375 1.7536 27.6214 0 25.4583 0H3.9167C1.7536 0 0 1.7536 0 3.9167V17.625C0 19.7881 1.7536 21.5417 3.9167 21.5417Z" fill="#374957"/>
<path d="M46.3306 1.72725C45.6027 0.647535 44.3858 0.000183594 43.0837 0H37.2087C35.0456 0 33.292 1.7536 33.292 3.9167V17.625C33.292 19.7881 35.0455 21.5417 37.2087 21.5417H43.0837C45.2468 21.5417 47.0003 19.7881 47.0003 17.625V3.9167C47.0016 3.13624 46.7683 2.37341 46.3306 1.72725Z" fill="#374957"/>
<path d="M11.9811 26.128C11.3349 25.6903 10.5721 25.457 9.79161 25.4583H3.91661C1.7536 25.4583 0 27.2119 0 29.375V43.0833C0 45.2465 1.7536 47 3.9167 47H9.7917C11.9548 47 13.7084 45.2464 13.7084 43.0833V29.375C13.7081 28.0728 13.0608 26.856 11.9811 26.128Z" fill="#374957"/>
<path d="M45.2727 26.128C44.6266 25.6903 43.8638 25.457 43.0833 25.4583H21.5417C19.3786 25.4583 17.625 27.2119 17.625 29.375V43.0833C17.625 45.2465 19.3786 47 21.5417 47H43.0834C45.2465 47 47 45.2465 47 43.0833V29.375C46.9998 28.0728 46.3525 26.856 45.2727 26.128Z" fill="#374957"/>
</g>
<defs>
<clipPath id="clip0_55_4461">
<rect width="47" height="47" fill="white"/>
</clipPath>
</defs>
</svg>
