<svg width="15" height="16" viewBox="0 0 15 16" fill="none" xmlns="http://www.w3.org/2000/svg">
<path d="M5.625 11.724L5.625 4.27598C5.62503 4.14415 5.6617 4.01528 5.73037 3.90567C5.79905 3.79607 5.89665 3.71064 6.01084 3.66019C6.12503 3.60975 6.25067 3.59655 6.37189 3.62226C6.49311 3.64797 6.60447 3.71144 6.69187 3.80465L10.1831 7.52865C10.3003 7.65366 10.3661 7.8232 10.3661 7.99998C10.3661 8.17675 10.3003 8.34629 10.1831 8.47131L6.69187 12.1953C6.60447 12.2885 6.49311 12.352 6.37189 12.3777C6.25067 12.4034 6.12503 12.3902 6.01084 12.3398C5.89665 12.2893 5.79905 12.2039 5.73037 12.0943C5.6617 11.9847 5.62503 11.8558 5.625 11.724Z" fill="#1BAAD1"/>
</svg>
