<svg width="74" height="74" viewBox="0 0 74 74" fill="none" xmlns="http://www.w3.org/2000/svg">
<g clip-path="url(#clip0_55_4843)">
<path d="M60.6646 8.50441C56.758 5.25351 52.2204 2.84699 47.3378 1.43648C42.4551 0.0259698 37.3332 -0.357951 32.2949 0.308907C22.9741 1.51979 14.4636 6.23252 8.49129 13.4902C2.51898 20.7478 -0.467392 30.0064 0.138547 39.3859C0.744486 48.7654 4.89732 57.5627 11.7538 63.9916C18.6103 70.4205 27.6565 73.999 37.0555 74.0006H58.5834C62.6706 73.9957 66.5891 72.3699 69.4792 69.4797C72.3693 66.5896 73.9951 62.6712 74 58.5839V34.87V34.6757C73.6737 29.6359 72.3228 24.7155 70.0299 20.2156C67.7369 15.7156 64.5502 11.7307 60.6646 8.50441ZM24.6667 21.5839H37C37.8178 21.5839 38.602 21.9088 39.1803 22.487C39.7585 23.0652 40.0834 23.8495 40.0834 24.6672C40.0834 25.485 39.7585 26.2692 39.1803 26.8475C38.602 27.4257 37.8178 27.7506 37 27.7506H24.6667C23.8489 27.7506 23.0647 27.4257 22.4865 26.8475C21.9082 26.2692 21.5834 25.485 21.5834 24.6672C21.5834 23.8495 21.9082 23.0652 22.4865 22.487C23.0647 21.9088 23.8489 21.5839 24.6667 21.5839ZM49.3334 52.4172H24.6667C23.8489 52.4172 23.0647 52.0924 22.4865 51.5142C21.9082 50.9359 21.5834 50.1517 21.5834 49.3339C21.5834 48.5162 21.9082 47.7319 22.4865 47.1537C23.0647 46.5754 23.8489 46.2506 24.6667 46.2506H49.3334C50.1511 46.2506 50.9354 46.5754 51.5136 47.1537C52.0919 47.7319 52.4167 48.5162 52.4167 49.3339C52.4167 50.1517 52.0919 50.9359 51.5136 51.5142C50.9354 52.0924 50.1511 52.4172 49.3334 52.4172ZM49.3334 40.0839H24.6667C23.8489 40.0839 23.0647 39.7591 22.4865 39.1808C21.9082 38.6026 21.5834 37.8183 21.5834 37.0006C21.5834 36.1828 21.9082 35.3986 22.4865 34.8203C23.0647 34.2421 23.8489 33.9172 24.6667 33.9172H49.3334C50.1511 33.9172 50.9354 34.2421 51.5136 34.8203C52.0919 35.3986 52.4167 36.1828 52.4167 37.0006C52.4167 37.8183 52.0919 38.6026 51.5136 39.1808C50.9354 39.7591 50.1511 40.0839 49.3334 40.0839Z" fill="#E9F0F3"/>
</g>
<defs>
<clipPath id="clip0_55_4843">
<rect width="74" height="74" fill="white"/>
</clipPath>
</defs>
</svg>
