<svg width="38" height="38" viewBox="0 0 38 38" fill="none" xmlns="http://www.w3.org/2000/svg">
<g clip-path="url(#clip0_56_5472)">
<path d="M19 23.7368C16.3767 23.7368 14.25 25.8635 14.25 28.4868V37.9868H23.75V28.4868C23.75 25.8635 21.6233 23.7368 19 23.7368Z" fill="white"/>
<path d="M26.9167 28.4876V37.9876H33.25C35.8733 37.9876 38 35.8609 38 33.2376V18.796C38.0004 17.9734 37.6807 17.183 37.1086 16.592L23.6534 2.04588C21.2793 -0.522833 17.2724 -0.680548 14.7037 1.69356C14.5817 1.80637 14.4641 1.92386 14.3514 2.04588L0.919942 16.5873C0.330496 17.1807 -0.000222544 17.9833 1.12355e-07 18.8198V33.2376C1.12355e-07 35.8609 2.12666 37.9876 4.75 37.9876H11.0833V28.4876C11.1129 24.1701 14.5988 20.6444 18.8075 20.5429C23.157 20.438 26.8835 24.0237 26.9167 28.4876Z" fill="white"/>
<path d="M19 23.7368C16.3767 23.7368 14.25 25.8635 14.25 28.4868V37.9868H23.75V28.4868C23.75 25.8635 21.6233 23.7368 19 23.7368Z" fill="white"/>
</g>
<defs>
<clipPath id="clip0_56_5472">
<rect width="38" height="38" fill="white"/>
</clipPath>
</defs>
</svg>
