<svg width="40" height="40" viewBox="0 0 40 40" fill="none" xmlns="http://www.w3.org/2000/svg">
<g clip-path="url(#clip0_91_1891)">
<path d="M12.373 35C13.0191 36.4857 14.0851 37.7503 15.44 38.6385C16.7948 39.5267 18.3796 39.9999 19.9997 39.9999C21.6198 39.9999 23.2046 39.5267 24.5595 38.6385C25.9143 37.7503 26.9803 36.4857 27.6264 35H12.373Z" fill="#073946"/>
<path d="M37.3197 20.915L34.4263 11.3767C33.4998 8.04058 31.4853 5.10963 28.7028 3.04917C25.9203 0.98872 22.5291 -0.0831322 19.0679 0.00380184C15.6066 0.0907358 12.2736 1.33147 9.59796 3.52901C6.92237 5.72656 5.05758 8.75494 4.29968 12.1333L2.05301 21.3617C1.7544 22.5879 1.73822 23.866 2.0057 25.0994C2.27317 26.3328 2.81731 27.4894 3.59705 28.4818C4.37679 29.4742 5.37176 30.2766 6.50687 30.8283C7.64199 31.38 8.88759 31.6667 10.1497 31.6667H29.3447C30.6459 31.6667 31.9291 31.362 33.0914 30.7771C34.2537 30.1921 35.2629 29.343 36.0381 28.2979C36.8133 27.2528 37.3329 26.0407 37.5555 24.7586C37.7781 23.4766 37.6973 22.1602 37.3197 20.915Z" fill="#073946"/>
</g>
<defs>
<clipPath id="clip0_91_1891">
<rect width="40" height="40" fill="white"/>
</clipPath>
</defs>
</svg>
