<svg width="40" height="40" viewBox="0 0 40 40" fill="none" xmlns="http://www.w3.org/2000/svg">
<g clip-path="url(#clip0_56_5461)">
<path d="M31.6667 5H8.33333C6.12401 5.00265 4.00593 5.88147 2.4437 7.4437C0.88147 9.00593 0.00264643 11.124 0 13.3333H40C39.9974 11.124 39.1185 9.00593 37.5563 7.4437C35.9941 5.88147 33.876 5.00265 31.6667 5Z" fill="white"/>
<path d="M0 26.6665C0.00264643 28.8758 0.88147 30.9939 2.4437 32.5561C4.00593 34.1183 6.12401 34.9972 8.33333 34.9998H31.6667C33.876 34.9972 35.9941 34.1183 37.5563 32.5561C39.1185 30.9939 39.9974 28.8758 40 26.6665V16.6665H0V26.6665ZM11.6667 25.8332C11.6667 26.3276 11.52 26.811 11.2453 27.2221C10.9706 27.6332 10.5802 27.9536 10.1234 28.1429C9.66656 28.3321 9.16389 28.3816 8.67894 28.2851C8.19399 28.1887 7.74853 27.9506 7.3989 27.6009C7.04927 27.2513 6.81117 26.8058 6.7147 26.3209C6.61824 25.8359 6.66775 25.3333 6.85697 24.8764C7.04619 24.4196 7.36662 24.0292 7.77774 23.7545C8.18886 23.4798 8.67221 23.3332 9.16667 23.3332C9.82971 23.3332 10.4656 23.5966 10.9344 24.0654C11.4033 24.5342 11.6667 25.1701 11.6667 25.8332Z" fill="white"/>
</g>
<defs>
<clipPath id="clip0_56_5461">
<rect width="40" height="40" fill="white"/>
</clipPath>
</defs>
</svg>
