<svg width="39" height="39" viewBox="0 0 39 39" fill="none" xmlns="http://www.w3.org/2000/svg">
<g clip-path="url(#clip0_91_1311)">
<path d="M30.875 0H8.12503C3.63995 0.0054082 0.0054082 3.63995 0 8.12503V30.8751C0.0054082 35.3601 3.63995 38.9947 8.12503 39H30.8751C35.3601 38.9947 38.9947 35.3601 39 30.875V8.12503C38.9947 3.63995 35.3601 0.0054082 30.875 0ZM32.5 13.1284L17.4622 28.1661C16.1933 29.4356 14.1355 29.436 12.866 28.1671C12.8657 28.1668 12.8654 28.1665 12.8651 28.1661L6.49997 21.8027C5.86409 21.1668 5.86409 20.1359 6.49997 19.5001C7.13586 18.8643 8.16677 18.8642 8.80257 19.5001L15.166 25.8636L30.2054 10.8258C30.8413 10.1922 31.8704 10.194 32.504 10.8298C33.1377 11.4657 33.1358 12.4948 32.5 13.1284Z" fill="white"/>
</g>
<defs>
<clipPath id="clip0_91_1311">
<rect width="39" height="39" fill="white"/>
</clipPath>
</defs>
</svg>
