<svg width="45" height="45" viewBox="0 0 45 45" fill="none" xmlns="http://www.w3.org/2000/svg">
<path d="M44.9998 15.9005V37.5005C44.9998 37.9978 44.8023 38.4747 44.4507 38.8263C44.099 39.178 43.6221 39.3755 43.1248 39.3755C42.6276 39.3755 42.1506 39.178 41.799 38.8263C41.4474 38.4747 41.2498 37.9978 41.2498 37.5005V22.0355L27.3748 28.6655C25.9119 29.529 24.2417 29.9788 22.543 29.9668C20.7614 29.9695 19.0123 29.4908 17.4805 28.5811L3.64296 21.9943C2.55524 21.4094 1.64385 20.544 1.00337 19.4881C0.362894 18.4321 0.0166562 17.224 0.00058606 15.9891C-0.015484 14.7542 0.299199 13.5375 0.911983 12.4652C1.52477 11.3929 2.41333 10.5042 3.48546 9.89115C3.53608 9.86115 3.59046 9.83302 3.64296 9.80677L17.6248 3.13552C19.1343 2.26864 20.8475 1.81951 22.5882 1.83434C24.3288 1.84917 26.0341 2.32742 27.5286 3.2199L41.3567 9.80677C42.4478 10.4105 43.3597 11.2923 43.9996 12.3626C44.6395 13.433 44.9846 14.6536 44.9998 15.9005ZM22.5411 33.713C20.1422 33.7183 17.7844 33.0896 15.7067 31.8905L7.49983 27.9736V33.0361C7.50095 35.0378 8.14177 36.9866 9.32876 38.5983C10.5158 40.2099 12.1868 41.4 14.098 41.9949C16.8286 42.7789 19.6591 43.1598 22.4998 43.1255C25.3409 43.1574 28.1715 42.7739 30.9017 41.9874C32.8129 41.3925 34.4839 40.2024 35.6709 38.5908C36.8579 36.9791 37.4987 35.0303 37.4998 33.0286V27.983L29.1392 31.9768C27.1323 33.1298 24.8556 33.7302 22.5411 33.7168V33.713Z" fill="white"/>
</svg>
