<svg width="22" height="38" viewBox="0 0 22 38" fill="none" xmlns="http://www.w3.org/2000/svg">
<path d="M0.75 34.3614L0.749999 3.63842C0.750115 3.09461 0.911461 2.56304 1.21364 2.11092C1.51582 1.65879 1.94527 1.3064 2.4477 1.09831C2.95012 0.890221 3.50296 0.835762 4.03633 0.941822C4.5697 1.04788 5.05965 1.3097 5.44424 1.69418L20.8057 17.0557C21.3213 17.5714 21.6109 18.2707 21.6109 18.9999C21.6109 19.7291 21.3213 20.4285 20.8057 20.9442L5.44424 36.3057C5.05965 36.6902 4.5697 36.952 4.03633 37.058C3.50296 37.1641 2.95012 37.1096 2.4477 36.9015C1.94527 36.6934 1.51583 36.3411 1.21364 35.8889C0.911463 35.4368 0.750116 34.9052 0.75 34.3614Z" fill="#85DEDE"/>
</svg>
